<svg xmlns="http://www.w3.org/2000/svg" width="100" height="100" viewBox="0 0 100 100"><path d="M79 51.1c.1-2.1-1.4-2.7-2-2.7H55.2c-1.9 0-2.2 2-2.2 2.2V74h26V51.1zM64 67.9c0 1.1-.9 2-2 2h-2c-1.1 0-2-.9-2-2v-2c0-1.1.9-2 2-2h2c1.1 0 2 .9 2 2v2zm0-10.2c0 1.1-.9 2-2 2h-2c-1.1 0-2-.9-2-2v-2c0-1.1.9-2 2-2h2c1.1 0 2 .9 2 2v2zm10 10.2c0 1.1-.9 2-2 2h-2c-1.1 0-2-.9-2-2v-2c0-1.1.9-2 2-2h2c1.1 0 2 .9 2 2v2zm0-10.2c0 1.1-.9 2-2 2h-2c-1.1 0-2-.9-2-2v-2c0-1.1.9-2 2-2h2c1.1 0 2 .9 2 2v2zM59 40.3V28.7c.1-2.1-1.4-2.7-2-2.7H23.2c-1.9 0-2.2 2-2.2 2.2V74h26V44.7s0-2.4 2.2-2.4h7.9s1.9-1.2 1.9-2zM32 66.9c0 1.1-.9 2-2 2h-2c-1.1 0-2-.9-2-2v-2c0-1.1.9-2 2-2h2c1.1 0 2 .9 2 2v2zm0-10.3c0 1.1-.9 2-2 2h-2c-1.1 0-2-.9-2-2v-2c0-1.1.9-2 2-2h2c1.1 0 2 .9 2 2v2zm0-10.2c0 1.1-.9 2-2 2h-2c-1.1 0-2-.9-2-2v-2c0-1.1.9-2 2-2h2c1.1 0 2 .9 2 2v2zm0-10.2c0 1.1-.9 2-2 2h-2c-1.1 0-2-.9-2-2v-2c0-1.1.9-2 2-2h2c1.1 0 2 .9 2 2v2zm11 30.7c0 1.1-.9 2-2 2h-2c-1.1 0-2-.9-2-2v-2c0-1.1.9-2 2-2h2c1.1 0 2 .9 2 2v2zm0-10.3c0 1.1-.9 2-2 2h-2c-1.1 0-2-.9-2-2v-2c0-1.1.9-2 2-2h2c1.1 0 2 .9 2 2v2zm0-10.2c0 1.1-.9 2-2 2h-2c-1.1 0-2-.9-2-2v-2c0-1.1.9-2 2-2h2c1.1 0 2 .9 2 2v2zm0-10.2c0 1.1-.9 2-2 2h-2c-1.1 0-2-.9-2-2v-2c0-1.1.9-2 2-2h2c1.1 0 2 .9 2 2v2zm11 0c0 1.1-.9 2-2 2h-2c-1.1 0-2-.9-2-2v-2c0-1.1.9-2 2-2h2c1.1 0 2 .9 2 2v2z M0.997 0.997" fill="#fff"/></svg>