<svg xmlns="http://www.w3.org/2000/svg" width="100" height="100" viewBox="0 0 100 100"><path fill="#fff" d="M73 21H27c-3.3 0-6 2.7-6 6v46c0 3.3 2.7 6 6 6h46c3.3 0 6-2.7 6-6V27c0-3.3-2.7-6-6-6zm-2 52H29c-1.1 0-2-.9-2-2V29c0-1.1.9-2 2-2h42c1.1 0 2 .9 2 2v42c0 1.1-.9 2-2 2zM45 33H35c-1.1 0-2 .9-2 2v10c0 1.1.9 2 2 2h10c1.1 0 2-.9 2-2V35c0-1.1-.9-2-2-2zm20 0H55c-1.1 0-2 .9-2 2v10c0 1.1.9 2 2 2h10c1.1 0 2-.9 2-2V35c0-1.1-.9-2-2-2zM45 53H35c-1.1 0-2 .9-2 2v10c0 1.1.9 2 2 2h10c1.1 0 2-.9 2-2V55c0-1.1-.9-2-2-2zm20 0H55c-1.1 0-2 .9-2 2v10c0 1.1.9 2 2 2h10c1.1 0 2-.9 2-2V55c0-1.1-.9-2-2-2z M0.966 0.966"/></svg>