<svg xmlns="http://www.w3.org/2000/svg" width="100" height="100" viewBox="0 0 100 100"><title/><path d="M49.9 20a25.4 25.4 0 1 0 25.2 25.5C75.1 31.7 63.9 20 49.9 20zm16.5 23.2L55.9 53.4c-.7.7-1.7.1-1.7-1.2v-6c-7.6 0-12.7 5.2-12.7 12.8h-7.6a20.1 20.1 0 0 1 20.3-20.4v-6.2c0-1.3 1.1-1.9 1.7-1.2l10.6 10.3a1.5 1.5 0 0 1 0 1.7zM26 64.2h-1.3A4.8 4.8 0 0 0 20 69v6.3a4.7 4.7 0 0 0 4.7 4.7h50.6a4.8 4.8 0 0 0 4.7-4.7V69a4.7 4.7 0 0 0-4.7-4.8h-1.6a30.1 30.1 0 0 1-47.7 0z M0.958 0.958" fill="#fff" fill-rule="evenodd"/></svg>