<svg xmlns="http://www.w3.org/2000/svg" width="100" height="100" viewBox="0 0 100 100"><path fill="#fff" d="M31.9 49.7c-.6.1-1.2.1-1.9.1-.6 0-1.2 0-1.9-.1-.6-.1-1.1.4-1.1 1V78c0 1.1.9 2 2 2h2c1.1 0 2-.9 2-2V50.7c0-.7-.5-1.1-1.1-1zm20 21c-.6.1-1.2.1-1.9.1-.6 0-1.2 0-1.9-.1-.6-.1-1.1.4-1.1 1V78c0 1.1.9 2 2 2h2c1.1 0 2-.9 2-2v-6.3c0-.7-.5-1.1-1.1-1zm20-15c-.6.1-1.2.1-1.9.1-.6 0-1.2 0-1.9-.1-.6-.1-1.1.4-1.1 1V78c0 1.1.9 2 2 2h2c1.1 0 2-.9 2-2V56.7c0-.7-.5-1.1-1.1-1zM33 30.7V22c0-1.1-.9-2-2-2h-2c-1.1 0-2 .9-2 2v8.7c-2.4 1.1-4 3.5-4 6.3 0 3.9 3.1 7 7 7s7-3.1 7-7c0-2.8-1.6-5.2-4-6.3zm20 21V22c0-1.1-.9-2-2-2h-2c-1.1 0-2 .9-2 2v29.7c-2.4 1.1-4 3.5-4 6.3 0 3.9 3.1 7 7 7s7-3.1 7-7c0-2.8-1.6-5.2-4-6.3zm20-15V22c0-1.1-.9-2-2-2h-2c-1.1 0-2 .9-2 2v14.7c-2.4 1.1-4 3.5-4 6.3 0 3.9 3.1 7 7 7s7-3.1 7-7c0-2.8-1.6-5.2-4-6.3z M0.946 0.946"/></svg>