<svg xmlns="http://www.w3.org/2000/svg" width="100" height="100" viewBox="0 0 100 100"><path d="M76.3 37.7h-2.7v26.9h2.7a3.8 3.8 0 0 0 3.7-3.7V41.4a3.8 3.8 0 0 0-3.7-3.7zM20 41.4v19.5a3.8 3.8 0 0 0 3.7 3.7h2.7V37.7h-2.7a3.8 3.8 0 0 0-3.7 3.7zm46.5-7.1h-33a3.8 3.8 0 0 0-3.7 3.8v26.2a3.8 3.8 0 0 0 3.7 3.7h33a3.8 3.8 0 0 0 3.7-3.7V38.1a3.8 3.8 0 0 0-3.7-3.8zm-5.6 27H37.8a1.2 1.2 0 0 1-1-1.9l7-12.1a.8.8 0 0 1 1.3 0l4.3 7.2a.8.8 0 0 0 1.3.1l3.4-5a.8.8 0 0 1 1.4 0l6.3 10a1 1 0 0 1-.9 1.7zm-.6-14.4a3.2 3.2 0 1 1 3.2-3.2 3.2 3.2 0 0 1-3.2 3.2z M0.9219999999999999 0.9219999999999999" fill="#fff"/></svg>