<svg xmlns="http://www.w3.org/2000/svg" width="100" height="100" viewBox="0 0 100 100"><path opacity=".15" d="M51.5 22h-3c-.8 0-1.5.7-1.5 1.5v13c0 .8.7 1.5 1.5 1.5h3c.8 0 1.5-.7 1.5-1.5v-13c0-.8-.7-1.5-1.5-1.5zm25 25h-13c-.8 0-1.5.7-1.5 1.5v3c0 .8.7 1.5 1.5 1.5h13c.8 0 1.5-.7 1.5-1.5v-3c0-.8-.7-1.5-1.5-1.5zm-25 15h-3c-.8 0-1.5.7-1.5 1.5v13c0 .8.7 1.5 1.5 1.5h3c.8 0 1.5-.7 1.5-1.5v-13c0-.8-.7-1.5-1.5-1.5zM38 51.5v-3c0-.8-.7-1.5-1.5-1.5h-13c-.8 0-1.5.7-1.5 1.5v3c0 .8.7 1.5 1.5 1.5h13c.8 0 1.5-.7 1.5-1.5zm21.5-8.9c.6.6 1.5.6 2.1 0l9.2-9.2c.6-.6.6-1.5 0-2.1l-2.1-2.1c-.6-.6-1.5-.6-2.1 0l-9.2 9.2c-.6.6-.6 1.5 0 2.1l2.1 2.1zm2.2 14.8c-.6-.6-1.5-.6-2.1 0l-2.1 2.1c-.6.6-.6 1.5 0 2.1l9.2 9.2c.6.6 1.5.6 2.1 0l2.1-2.1c.6-.6.6-1.5 0-2.1l-9.2-9.2zm-21.2 0c-.6-.6-1.5-.6-2.1 0l-9.2 9.2c-.6.6-.6 1.5 0 2.1l2.1 2.1c.6.6 1.5.6 2.1 0l9.2-9.2c.6-.6.6-1.5 0-2.1l-2.1-2.1zm-7.1-28.3c-.6-.6-1.5-.6-2.1 0l-2.1 2.1c-.6.6-.6 1.5 0 2.1l9.2 9.2c.6.6 1.5.6 2.1 0l2.1-2.1c.6-.6.6-1.5 0-2.1l-9.2-9.2z M0.8079999999999998 0.8079999999999998" fill="#fff"/></svg>