<svg xmlns="http://www.w3.org/2000/svg" width="100" height="100" viewBox="0 0 100 100"><path fill="#fff" d="M46.3 46.3H29.4c-1 0-1.9.8-1.9 1.8v14.4h-5.6c-1 0-1.9.9-1.9 1.9v13.7c0 1 .9 1.9 1.9 1.9h18.7c1 0 1.9-.9 1.9-1.9V64.4c0-1-.9-1.9-1.9-1.9H35v-8.7h30v8.7h-5.6c-1 0-1.9.9-1.9 1.9v13.7c0 1 .9 1.9 1.9 1.9h18.8c1 0 1.8-.9 1.8-1.9V64.4c0-1-.8-1.9-1.8-1.9h-5.7V48.1c0-1-.9-1.8-1.9-1.8H53.8v-8.8h5.6c1 0 1.8-.9 1.8-1.9V21.9c0-1-.8-1.9-1.8-1.9H40.6c-1 0-1.9.9-1.9 1.9v13.7c0 1 .9 1.9 1.9 1.9h5.7v8.8z M0.8039999999999998 0.8039999999999998"/></svg>