<svg xmlns="http://www.w3.org/2000/svg" width="100" height="100" viewBox="0 0 100 100"><title/><path d="M53 50.2a1.3 1.3 0 0 1-.4-1v-8.4a1.4 1.4 0 0 0-1.3-1.4h-2.6a1.4 1.4 0 0 0-1.3 1.4v10.6a1.9 1.9 0 0 0 .4 1l6.5 6.5a1.3 1.3 0 0 0 1.8 0L58 57a1.3 1.3 0 0 0 0-1.9zm-3-21.3A21.1 21.1 0 1 0 71.2 50 21.2 21.2 0 0 0 50 28.9zm0 37A15.8 15.8 0 1 1 65.9 50 15.9 15.9 0 0 1 50 65.8zm-21.2-6a15.7 15.7 0 0 1 0-19.8L25.3 36a21 21 0 0 0 0 27.9zm42.4-19.8a15.7 15.7 0 0 1 0 19.8l3.4 4.1a21 21 0 0 0 0-27.9z M0.7419999999999998 0.7419999999999998" fill="#fff" fill-rule="evenodd"/></svg>