<svg xmlns="http://www.w3.org/2000/svg" width="100" height="100" viewBox="0 0 100 100"><path fill="#fff" d="M78.8 62.1l-3.6-1.7c-.5-.3-1.2-.3-1.7 0L52 70.6c-1.2.6-2.7.6-3.9 0L26.5 60.4c-.5-.3-1.2-.3-1.7 0l-3.6 1.7c-1.6.8-1.6 2.9 0 3.7L48 78.5c1.2.6 2.7.6 3.9 0l26.8-12.7c1.7-.8 1.7-3 .1-3.7zm0-14l-3.7-1.7c-.5-.3-1.2-.3-1.7 0L52 56.6c-1.2.6-2.7.6-3.9 0L26.6 46.4c-.5-.3-1.2-.3-1.7 0l-3.7 1.7c-1.6.8-1.6 2.9 0 3.7L48 64.6c1.2.6 2.7.6 3.9 0l26.8-12.7c1.7-.8 1.7-3 .1-3.8zM21.2 37.8L48 50.5c1.2.6 2.7.6 3.9 0l26.8-12.7c1.6-.8 1.6-2.9 0-3.7L51.9 21.4c-1.2-.6-2.7-.6-3.9 0L21.2 34.2c-1.6.7-1.6 2.9 0 3.6z M0.7399999999999998 0.7399999999999998"/></svg>