<svg xmlns="http://www.w3.org/2000/svg" width="100" height="100" viewBox="0 0 100 100"><path d="M77.1 55.2h-3.7a1.9 1.9 0 0 0-1.9 1.8v12.5a1.9 1.9 0 0 1-1.9 1.9H28.4a1.9 1.9 0 0 1-1.9-1.9V57a1.9 1.9 0 0 0-1.9-1.9h-3.7A1.9 1.9 0 0 0 19 57v16.9a5 5 0 0 0 5 5h50a5 5 0 0 0 5-5V57a1.9 1.9 0 0 0-1.9-1.8zm-29.3 8.2a1.8 1.8 0 0 0 2.6 0l16.9-16.9a1.8 1.8 0 0 0 0-2.6l-2.7-2.6a1.8 1.8 0 0 0-2.6 0l-7 7a1.3 1.3 0 0 1-2.1-.9V20.8a2.3 2.3 0 0 0-2-1.9h-3.8a1.9 1.9 0 0 0-1.8 1.9v26.5a1.3 1.3 0 0 1-2.2.9l-7-7a1.8 1.8 0 0 0-2.6 0l-2.6 2.7a1.8 1.8 0 0 0 0 2.7z M0.6809999999999997 0.6809999999999997" fill="#fff"/></svg>