<svg xmlns="http://www.w3.org/2000/svg" width="100" height="100" viewBox="0 0 100 100"><path d="M75.6 20.5H72a1.8 1.8 0 0 0-1.7 1.8v8.3c0 1-1.2 1.8-1.9.9A26 26 0 0 0 46.3 23a22.7 22.7 0 0 0-8.8 2.6 22.9 22.9 0 0 0-4 2.5 1.9 1.9 0 0 0-.2 2.7l2.5 2.5a1.8 1.8 0 0 0 2.2.2 28.6 28.6 0 0 1 4.6-2.5c.7-.2 1.6-.4 2.4-.7a19.5 19.5 0 0 1 18.5 6.4c1.5 1.7.4 2.7-.8 2.7h-8.3a1.9 1.9 0 0 0-1.9 1.8v3.6a1.9 1.9 0 0 0 1.9 1.7H76a1.5 1.5 0 0 0 1.4-1.5V22.3a1.8 1.8 0 0 0-1.8-1.8zM64.8 62.4a1.7 1.7 0 0 0-2.4 0 18.9 18.9 0 0 1-6.9 4.4c-.7.2-1.5.4-2.4.7a19.5 19.5 0 0 1-18.5-6.4c-1.4-1.7-.4-2.7.8-2.7h8.3a1.8 1.8 0 0 0 1.8-1.8V53a1.8 1.8 0 0 0-1.8-1.7H22.2a1.6 1.6 0 0 0-1.6 1.5v22.7a1.8 1.8 0 0 0 1.8 1.8h3.5a1.8 1.8 0 0 0 1.8-1.8v-8.3c0-1 1.2-1.7 1.9-.9a25.9 25.9 0 0 0 22.1 8.5 22.7 22.7 0 0 0 8.8-2.6 25.9 25.9 0 0 0 6.7-4.8 1.7 1.7 0 0 0 0-2.5z M0.6769999999999997 0.6769999999999997" fill="#fff"/></svg>