<svg xmlns="http://www.w3.org/2000/svg" width="100" height="100" viewBox="0 0 100 100"><path fill="#fff" d="M22 66h5c1.1 0 2-.9 2-2V33c0-1.1-.9-2-2-2h-5c-1.1 0-2 .9-2 2v31c0 1.1.9 2 2 2zm56-35h-5c-1.1 0-2 .9-2 2v31c0 1.1.9 2 2 2h5c1.1 0 2-.9 2-2V33c0-1.1-.9-2-2-2zM53 66c1.1 0 2-.9 2-2V33c0-1.1-.9-2-2-2h-6c-1.1 0-2 .9-2 2v31c0 1.1.9 2 2 2h6zm12 0c1.1 0 2-.9 2-2V33c0-1.1-.9-2-2-2h-2c-1.1 0-2 .9-2 2v31c0 1.1.9 2 2 2h2zm-26 0c1.1 0 2-.9 2-2V33c0-1.1-.9-2-2-2h-2c-1.1 0-2 .9-2 2v31c0 1.1.9 2 2 2h2zm39 6H22c-1.1 0-2 .9-2 2v2c0 1.1.9 2 2 2h56c1.1 0 2-.9 2-2v-2c0-1.1-.9-2-2-2zm0-52H22c-1.1 0-2 .9-2 2v2c0 1.1.9 2 2 2h56c1.1 0 2-.9 2-2v-2c0-1.1-.9-2-2-2z M0.6819999999999997 0.6819999999999997"/></svg>