<svg xmlns="http://www.w3.org/2000/svg" width="100" height="100" viewBox="0 0 100 100"><rect x="19" y="18.92" width="60" height="16" rx="4" ry="4" fill="#fff"/><rect x="19" y="40.92" width="27" height="16" rx="4" ry="4" fill="#fff"/><rect x="19" y="62.92" width="27" height="16" rx="4" ry="4" fill="#fff"/><path d="M65 72.5a1.4 1.4 0 0 0 2 0l11.5-11.4a1.4 1.4 0 0 0 0-2.1L67 47.5a1.4 1.4 0 0 0-2.1 0l-2.1 2.1a1.4 1.4 0 0 0 0 2.1l3.6 3.6a1 1 0 0 1-.7 1.7H53.6a1.6 1.6 0 0 0-1.6 1.5v3a1.7 1.7 0 0 0 1.6 1.5h12.2a1 1 0 0 1 .7 1.7l-3.6 3.6a1.4 1.4 0 0 0 0 2.1z M0.6789999999999997 0.6789999999999997" fill="#fff"/></svg>