<svg xmlns="http://www.w3.org/2000/svg" width="100" height="100" viewBox="0 0 100 100"><title/><rect x="43.93" y="68.27" width="36.07" height="7.99" rx="2" ry="2" fill="#fff"/><rect x="43.93" y="50.42" width="36.07" height="7.99" rx="2" ry="2" fill="#fff"/><rect x="49.92" y="32.57" width="30.08" height="7.99" rx="2" ry="2" fill="#fff"/><path d="M33.8 76.3h-4a2 2 0 0 1-2-2v-4a2 2 0 0 1 2-2h4a2 2 0 0 1 2 2v4a1.9 1.9 0 0 1-2 2zm0-17.9h-4a2 2 0 0 1-2-2v-4a2 2 0 0 1 2-2h4a2 2 0 0 1 2 2v4a1.9 1.9 0 0 1-2 2z M0.6779999999999997 0.6779999999999997" fill="#fff" fill-rule="evenodd"/><path d="M47.5 26.3l-2.1-2.1a1.4 1.4 0 0 0-2.1 0L30.1 37.3l-5.4-5.2a1.4 1.4 0 0 0-2.1 0l-2.1 2.1a1.4 1.4 0 0 0 0 2.1l7.3 7.4a3 3 0 0 0 4.3 0l15.4-15.2a1.7 1.7 0 0 0 0-2.2z" fill="#fff" fill-rule="evenodd"/></svg>