<svg xmlns="http://www.w3.org/2000/svg" width="100" height="100" viewBox="0 0 100 100"><title/><path d="M49.9 20a25.4 25.4 0 1 0 25.2 25.5C75.1 31.7 63.9 20 49.9 20zM39.2 55.9a2.8 2.8 0 0 1-3 2.6h-1.9a1.1 1.1 0 0 1-1.1-1V42.8a1.1 1.1 0 0 1 1.1-1h3.8a1.1 1.1 0 0 1 1.1 1zM66.4 53c0 5.5-5.2 6.1-10.9 6.1-5.3 0-7.1-1.8-12.2-1.9a1 1 0 0 1-1-1V43.5a1.1 1.1 0 0 1 1.1-1 6.7 6.7 0 0 0 6.4-6.7V32a1.1 1.1 0 0 1 1.1-1h1.9a2.8 2.8 0 0 1 3 2.5V40a2.8 2.8 0 0 0 3 2.5h4.5a2.8 2.8 0 0 1 3 2.6zM26 64.2h-1.3A4.8 4.8 0 0 0 20 69v6.3a4.7 4.7 0 0 0 4.7 4.7h50.6a4.8 4.8 0 0 0 4.7-4.7V69a4.7 4.7 0 0 0-4.7-4.8h-1.6a30.1 30.1 0 0 1-47.7 0z M0.6179999999999997 0.6179999999999997" fill="#fff" fill-rule="evenodd"/></svg>