<svg xmlns="http://www.w3.org/2000/svg" width="100" height="100" viewBox="0 0 100 100"><path fill="#fff" d="M15.2 68.2L29.4 51c.4-.7.4-1.5 0-2.1l-14.2-17c-.1-.2-.2-.4-.2-.6 0-.6.5-1 1-1h20.7c.6 0 1.1.2 1.4.7L53 49c.4.6.4 1.4 0 2.1l-14.8 18c-.3.4-.9.7-1.4.7H16.1c-.6 0-1-.4-1-1-.1-.2 0-.5.1-.6zm31.6 0L60.9 51c.4-.7.4-1.5 0-2.1l-14.2-17c-.1-.2-.2-.4-.2-.6 0-.6.5-1 1-1h20.7c.6 0 1.1.2 1.4.7l14.9 18c.4.6.4 1.4 0 2.1l-14.8 18c-.3.4-.9.7-1.4.7H47.6c-.6 0-1-.4-1-1 0-.2.1-.5.2-.6z M0.6139999999999997 0.6139999999999997"/></svg>