<svg xmlns="http://www.w3.org/2000/svg" width="100" height="100" viewBox="0 0 100 100"><title/><path d="M56.6 62.1a7.4 7.4 0 0 1-7.4-7.2 7.3 7.3 0 0 1 7.4-7.2 7.2 7.2 0 1 1 0 14.4zM71.8 20H28.3a8.1 8.1 0 0 0-8.3 7.8v44.4a8.1 8.1 0 0 0 8.2 7.8h24.4C47.5 75.5 39 66.2 39 56.5a17.3 17.3 0 0 1 34.7 0c0 9.8-8.6 19-13.7 23.5h11.8a8.1 8.1 0 0 0 8.2-7.8V27.8c.1-4.2-3.6-7.8-8.2-7.8zM47.6 33.4a2.9 2.9 0 0 1-2.7 2.7H30.8a2.9 2.9 0 0 1-2.8-2.7v-2.8a2.9 2.9 0 0 1 2.8-2.7h14a2.9 2.9 0 0 1 2.8 2.7z M0.6079999999999997 0.6079999999999997" fill="#fff" fill-rule="evenodd"/></svg>