<svg xmlns="http://www.w3.org/2000/svg" width="100" height="100" viewBox="0 0 100 100"><title/><rect x="60.31" y="60.99" width="5.48" height="5.48" rx=".91" ry=".91" fill="#fff"/><rect x="60.31" y="70.12" width="5.48" height="5.48" rx=".91" ry=".91" fill="#fff"/><rect x="51.17" y="60.99" width="5.48" height="5.48" rx=".91" ry=".91" fill="#fff"/><rect x="51.17" y="70.12" width="5.48" height="5.48" rx=".91" ry=".91" fill="#fff"/><rect x="42.03" y="60.99" width="5.48" height="5.48" rx=".91" ry=".91" fill="#fff"/><rect x="42.03" y="70.12" width="5.48" height="5.48" rx=".91" ry=".91" fill="#fff"/><path d="M71.8 20H28.3a8.1 8.1 0 0 0-8.3 7.8v44.4a8.1 8.1 0 0 0 8.2 7.8h5.9a3.6 3.6 0 0 1-.4-1.7V56a1.4 1.4 0 0 1 1.3-1.4h37.5a1.4 1.4 0 0 1 1.4 1.4v22.3a3.6 3.6 0 0 1-.3 1.5 8 8 0 0 0 6.4-7.6V27.8c.1-4.2-3.6-7.8-8.2-7.8zm-41 16.1a2.9 2.9 0 0 1-2.8-2.7v-2.8a2.9 2.9 0 0 1 2.8-2.7h14a2.9 2.9 0 0 1 2.8 2.7v2.8a2.9 2.9 0 0 1-2.8 2.7zm43.1 14.1a1.4 1.4 0 0 1-1.4 1.4H35a1.4 1.4 0 0 1-1.4-1.4V48a3.7 3.7 0 0 1 3.7-3.6h4.6v-1.9a2.7 2.7 0 0 1 5.4 0v1.8h12.8v-1.8a2.7 2.7 0 0 1 5.5 0v1.8h4.6a3.7 3.7 0 0 1 3.7 3.7z M0.6119999999999997 0.6119999999999997" fill="#fff" fill-rule="evenodd"/></svg>