<svg xmlns="http://www.w3.org/2000/svg" width="100" height="100" viewBox="0 0 100 100"><title/><path d="M71 20H29.2a7.9 7.9 0 0 0-8 7.8v44.4a7.9 7.9 0 0 0 7.9 7.8H71a7.9 7.9 0 0 0 7.8-7.8V27.8A7.7 7.7 0 0 0 71 20zM31.8 33a2.7 2.7 0 0 1 2.6-2.6h13.3a2.7 2.7 0 0 1 2.6 2.6v2.6a2.7 2.7 0 0 1-2.6 2.6H34.4a2.7 2.7 0 0 1-2.6-2.6zM68 67a2.7 2.7 0 0 1-2.6 2.6H52.2a2.7 2.7 0 0 1-2.6-2.6v-2.6a2.7 2.7 0 0 1 2.6-2.6h13.3a2.6 2.6 0 0 1 2.5 2.6zm.5-12.4a2.8 2.8 0 0 1-2.7 2.6H34.4a2.7 2.7 0 0 1-2.6-2.6v-9.1a2.7 2.7 0 0 1 2.6-2.6h31.5a2.7 2.7 0 0 1 2.6 2.6z M0.5469999999999996 0.5469999999999996" fill="#fff" fill-rule="evenodd"/></svg>