<svg xmlns="http://www.w3.org/2000/svg" width="100" height="100" viewBox="0 0 100 100"><title/><path d="M75.9 29.3l-9-8.9a1.1 1.1 0 0 0-.9-.4 1.4 1.4 0 0 0-1.4 1.4v6.4a3.9 3.9 0 0 0 3.9 3.8h6.4a1.4 1.4 0 0 0 1.3-1.3 1.7 1.7 0 0 0-.3-1zM29.6 62.6v-31a5.8 5.8 0 0 0-5.8 5.8v36.7a5.9 5.9 0 0 0 5.8 5.9h29.2a5.8 5.8 0 0 0 5.8-5.7H41.3c-6.4 0-11.7 0-11.7-11.7zm44.7-25.2h-9.8a5.8 5.8 0 0 1-5.9-5.8v-9.7a1.8 1.8 0 0 0-1.8-1.9H41.3a5.8 5.8 0 0 0-5.9 5.8v36.7a5.8 5.8 0 0 0 5.9 5.8h29.1a5.8 5.8 0 0 0 5.9-5.8V39.4a2 2 0 0 0-2-2zM49.9 62.2a2.5 2.5 0 0 1-2.5 2.5h-5a2.5 2.5 0 0 1-2.4-2.5v-5a2.5 2.5 0 0 1 2.5-2.5h5a2.5 2.5 0 0 1 2.5 2.5zm0-13.7a2.5 2.5 0 0 1-2.5 2.5h-5a2.5 2.5 0 0 1-2.4-2.5v-5a2.5 2.5 0 0 1 2.5-2.5h5a2.5 2.5 0 0 1 2.5 2.5zm13.7 13.7a2.5 2.5 0 0 1-2.5 2.5h-5a2.5 2.5 0 0 1-2.5-2.5v-5a2.5 2.5 0 0 1 2.5-2.5h5a2.5 2.5 0 0 1 2.5 2.5zm0-13.7a2.5 2.5 0 0 1-2.5 2.5h-5a2.5 2.5 0 0 1-2.5-2.5v-5a2.5 2.5 0 0 1 2.5-2.5h5a2.5 2.5 0 0 1 2.5 2.5z M0.5059999999999996 0.5059999999999996" fill="#fff" fill-rule="evenodd"/></svg>