<svg xmlns="http://www.w3.org/2000/svg" width="52" height="100" viewBox="0 -24 100 100" weight="100"><path fill="#fff" d="M27 3c.6 0 1 .4 1 1v45.9c0 .6-.4 1-1 1h-2c-.6 0-1-.4-1-1V4c0-.6.4-1 1-1h2zm-1 14.2l-8.1-8.1c-.4-.4-.4-1 0-1.4l1.4-1.4c.4-.4 1-.4 1.4 0l5.3 5.3 5.3-5.3c.4-.4 1-.4 1.4 0l1.4 1.4c.4.4.4 1 0 1.4L26 17.2m0 19.5l8.1 8.1c.4.4.4 1 0 1.4l-1.4 1.4c-.4.4-1 .4-1.4 0L26 42.3l-5.3 5.3c-.4.4-1 .4-1.4 0l-1.4-1.4c-.4-.4-.4-1 0-1.4l8.1-8.1 M0.8909999999999999 0.8909999999999999"/><path fill="#fff" d="M47.1 15.6c.3.5.2 1.1-.4 1.4L7.2 40.3c-.5.3-1.1.2-1.4-.4l-1-1.7c-.3-.5-.2-1.1.4-1.4l39.5-23.4c.5-.3 1.1-.2 1.4.4l1 1.8zM34.4 22l2.8-11.1c.1-.6.6-.9 1.2-.7l1.9.5c.6.1.9.6.7 1.2l-1.9 7.3 7.3 1.9c.6.1.9.6.7 1.2l-.5 1.9c-.1.6-.6.9-1.2.7l-11-2.9m-16.8 9.9L14.8 43c-.1.6-.6.9-1.2.7l-1.9-.5c-.6-.1-.9-.6-.7-1.2l1.9-7.3-7.3-1.9c-.6-.1-.9-.6-.7-1.2l.5-1.9c.1-.6.6-.9 1.2-.7l11 2.9"/><path fill="#fff" d="M5.9 13.9c.3-.5.9-.7 1.4-.4l39.5 23.4c.5.3.7.9.4 1.4l-1 1.7c-.3.5-.9.7-1.4.4L5.2 17c-.5-.3-.7-.9-.4-1.4l1.1-1.7zM17.6 22L6.5 24.9c-.6.1-1.1-.1-1.2-.7l-.5-1.9c-.1-.6.1-1.1.7-1.2l7.3-1.9-1.9-7.3c-.1-.6.1-1.1.7-1.2l1.9-.5c.6-.1 1.1.1 1.2.7L17.6 22m16.7 9.9L45.4 29c.6-.1 1.1.1 1.2.7l.5 1.9c.1.6-.1 1.1-.7 1.2l-7.3 1.9L41 42c.1.6-.1 1.1-.7 1.2l-1.9.5c-.6.1-1.1-.1-1.2-.7l-2.9-11.1"/></svg>