<svg xmlns="http://www.w3.org/2000/svg" width="52" height="100" viewBox="0 -24 100 100" weight="100"><path d="M28.4 10.2V6.8h.8c1.3 0 2.4-1 2.4-2.4 0-1.3-1-2.4-2.4-2.4h-6.4c-1.3 0-2.4 1-2.4 2.4 0 1.3 1 2.4 2.4 2.4h.8v3.4C13.7 11.4 6 19.8 6 30c0 11 9 20 20 20s20-9 20-20c0-10.2-7.7-18.6-17.6-19.8zm-2.4 35c-8.4 0-15.2-6.8-15.2-15.2S17.6 14.8 26 14.8 41.2 21.6 41.2 30 34.4 45.2 26 45.2zm5.3-23.4l-3.7 3.7c-.5-.2-1-.3-1.6-.3-2.6 0-4.8 2.2-4.8 4.8s2.2 4.8 4.8 4.8 4.8-2.2 4.8-4.8c0-.6-.1-1.1-.3-1.6l3.7-3.7c.8-.8.8-2.1 0-2.9-.8-.8-2.1-.8-2.9 0z M0.49199999999999955 0.49199999999999955" fill="#fff"/></svg>