<svg xmlns="http://www.w3.org/2000/svg" width="52" height="100" viewBox="0 -24 100 100" weight="100"><path d="M18.5 6.5c2 1.4 3.9 4.6 4.7 7.1.2.6.6 1 1.2 1 .6.2 1 .2 1.6.2.9 0 1.6 0 2.3-.3 2-.7 3.8-1.6 5.3-3.1 2.4-2.5 3.3-6 2.4-8.9-2.9-.9-6.4-.1-8.8 2.4-.7.7-1.3 1.5-1.7 2.4-1.3-2-2.8-3.8-4.5-4.9-1.2-.7-2.7-.3-3.4.9-.6 1.1-.1 2.5.9 3.2zm24.2 11.7c-8.1-4.6-9.8 1.6-16.7 1.6s-8.6-6.2-16.7-1.6C1.5 22.7 3.8 37.4 6.9 43c2.8 4.9 7.9 9.9 18.4 5.1.4-.2.9-.2 1.3 0 10.5 4.8 15.7-.3 18.4-5.1 3.2-5.6 5.5-20.3-2.3-24.8z M0.6549999999999997 0.6549999999999997" fill="#fff"/></svg>