<svg xmlns="http://www.w3.org/2000/svg" width="52" height="100" viewBox="0 -24 100 100" weight="100"><path d="M28.4 29v20.2c0 .7.7 1 1.2.7 3.9-2.2 15.8-9.1 15.8-9.1 1.5-.9 2.5-2.6 2.5-4.4V18.3c0-.7-.7-1-1.2-.7l-17.5 10c-.4.3-.8.8-.8 1.4zm-1.6-5.7l17.6-10c.6-.3.6-1.1 0-1.4-3.9-2.2-15.9-9.2-15.9-9.2-1.5-.9-3.5-.9-5.1 0 0 0-12 6.9-15.9 9.2-.5.3-.5 1.1.1 1.4l17.6 10c.5.3 1.1.3 1.6 0zm-4.1 4.2l-17.5-10c-.5-.3-1.2.1-1.2.8v18.1c0 1.8 1 3.5 2.5 4.4 0 0 11.9 6.9 15.8 9.1.6.3 1.2-.1 1.2-.7V29c.1-.6-.3-1.1-.8-1.5z M0.6009999999999996 0.6009999999999996" fill="#fff"/></svg>