<svg xmlns="http://www.w3.org/2000/svg" width="52" height="100" viewBox="0 -24 100 100" weight="100"><g fill="#fff"><path d="M20.1 26H44c.7 0 1.4-.5 1.5-1.2l4.4-14.9c.3-1-.5-2-1.5-2H11.5l-.6-2.2C10.5 4.7 9.5 4 8.5 4H4.6C3.3 4 2.1 4.9 2 6.2c-.1 1.3 1.1 2.5 2.4 2.5h2.3l7.6 25c.3 1 1.2 1.7 2.3 1.7h28.2c1.3 0 2.5-.9 2.6-2.2.1-1.3-1.1-2.5-2.4-2.5H20.2c-1.1 0-2-.7-2.3-1.6V29c-.5-1.5.7-3 2.2-3z M0.49399999999999955 0.49399999999999955"/><ellipse cx="20.6" cy="44.1" rx="4" ry="3.9"/><ellipse cx="40.1" cy="44.1" rx="4" ry="3.9"/></g></svg>