<svg xmlns="http://www.w3.org/2000/svg" width="52" height="100" viewBox="0 -24 100 100" weight="100"><path d="M50 26.9c.1-1.7-1.2-2.2-1.7-2.2h-18c-1.6 0-1.8 1.7-1.8 1.8V46H50V26.9zm-12.4 14c0 .9-.7 1.7-1.7 1.7h-1.7c-.9 0-1.7-.8-1.7-1.7v-1.7c0-.9.7-1.7 1.7-1.7h1.7c.9 0 1.7.8 1.7 1.7v1.7zm0-8.5c0 .9-.7 1.7-1.7 1.7h-1.7c-.9 0-1.7-.8-1.7-1.7v-1.7c0-.9.7-1.7 1.7-1.7h1.7c.9 0 1.7.8 1.7 1.7v1.7zm8.3 8.5c0 .9-.7 1.7-1.7 1.7h-1.7c-.9 0-1.7-.8-1.7-1.7v-1.7c0-.9.7-1.7 1.7-1.7h1.7c.9 0 1.7.8 1.7 1.7v1.7zm0-8.5c0 .9-.7 1.7-1.7 1.7h-1.7c-.9 0-1.7-.8-1.7-1.7v-1.7c0-.9.7-1.7 1.7-1.7h1.7c.9 0 1.7.8 1.7 1.7v1.7zM33.4 17.9V8.2c.1-1.7-1.1-2.2-1.6-2.2h-28C2.2 6 2 7.7 2 7.8V46h21.5V21.6s0-2 1.8-2h6.5c1 0 1.6-1 1.6-1.7zM11.1 40.1c0 .9-.7 1.7-1.7 1.7H7.8c-.9 0-1.7-.8-1.7-1.7v-1.7c0-.9.7-1.7 1.7-1.7h1.7c.9 0 1.7.8 1.7 1.7v1.7zm0-8.6c0 .9-.7 1.7-1.7 1.7H7.8c-.9 0-1.7-.8-1.7-1.7v-1.7c0-.9.7-1.7 1.7-1.7h1.7c.9 0 1.7.8 1.7 1.7v1.7zm0-8.5c0 .9-.7 1.7-1.7 1.7H7.8c-.9 0-1.7-.8-1.7-1.7v-1.7c0-.9.7-1.7 1.7-1.7h1.7c.9 0 1.7.8 1.7 1.7V23zm0-8.5c0 .9-.7 1.7-1.7 1.7H7.8c-.9 0-1.7-.8-1.7-1.7v-1.7c0-.9.7-1.7 1.7-1.7h1.7c.9 0 1.7.8 1.7 1.7v1.7zm9.1 25.6c0 .9-.7 1.7-1.7 1.7h-1.7c-.9 0-1.7-.8-1.7-1.7v-1.7c0-.9.7-1.7 1.7-1.7h1.7c.9 0 1.7.8 1.7 1.7v1.7zm0-8.6c0 .9-.7 1.7-1.7 1.7h-1.7c-.9 0-1.7-.8-1.7-1.7v-1.7c0-.9.7-1.7 1.7-1.7h1.7c.9 0 1.7.8 1.7 1.7v1.7zm0-8.5c0 .9-.7 1.7-1.7 1.7h-1.7c-.9 0-1.7-.8-1.7-1.7v-1.7c0-.9.7-1.7 1.7-1.7h1.7c.9 0 1.7.8 1.7 1.7V23zm0-8.5c0 .9-.7 1.7-1.7 1.7h-1.7c-.9 0-1.7-.8-1.7-1.7v-1.7c0-.9.7-1.7 1.7-1.7h1.7c.9 0 1.7.8 1.7 1.7v1.7zm9.1 0c0 .9-.7 1.7-1.7 1.7H26c-.9 0-1.7-.8-1.7-1.7v-1.7c0-.9.7-1.7 1.7-1.7h1.7c.9 0 1.7.8 1.7 1.7v1.7z M0.8389999999999999 0.8389999999999999" fill="#fff"/></svg>