<svg xmlns="http://www.w3.org/2000/svg" width="52" height="100" viewBox="0 -24 100 100" weight="100"><path d="M46.5 20h-41c-.8 0-1.5.7-1.5 1.5V46c0 2.2 1.8 4 4 4h36c2.2 0 4-1.8 4-4V21.5c0-.8-.7-1.5-1.5-1.5zM19 42c0 .6-.4 1-1 1h-4c-.6 0-1-.4-1-1v-4c0-.6.4-1 1-1h4c.6 0 1 .4 1 1v4zm0-10c0 .6-.4 1-1 1h-4c-.6 0-1-.4-1-1v-4c0-.6.4-1 1-1h4c.6 0 1 .4 1 1v4zm10 10c0 .6-.4 1-1 1h-4c-.6 0-1-.4-1-1v-4c0-.6.4-1 1-1h4c.6 0 1 .4 1 1v4zm0-10c0 .6-.4 1-1 1h-4c-.6 0-1-.4-1-1v-4c0-.6.4-1 1-1h4c.6 0 1 .4 1 1v4zm10 10c0 .6-.4 1-1 1h-4c-.6 0-1-.4-1-1v-4c0-.6.4-1 1-1h4c.6 0 1 .4 1 1v4zm0-10c0 .6-.4 1-1 1h-4c-.6 0-1-.4-1-1v-4c0-.6.4-1 1-1h4c.6 0 1 .4 1 1v4zm5-25h-5V5c0-1.6-1.3-3-3-3-1.6 0-3 1.3-3 3v2H19V5c0-1.6-1.3-3-3-3-1.6 0-3 1.3-3 3v2H8c-2.2 0-4 1.8-4 4v2.5c0 .8.7 1.5 1.5 1.5h41c.8 0 1.5-.7 1.5-1.5V11c0-2.2-1.8-4-4-4z M0.47099999999999953 0.47099999999999953" fill="#fff"/></svg>