<svg xmlns="http://www.w3.org/2000/svg" width="52" height="100" viewBox="0 -24 100 100" weight="100"><path d="M16.4 24.2c0-.6-.8-1-1.3-.6L3.9 32.1C2.7 33 2 34.5 2 36v3.3c0 .6.6 1 1 .7l12.3-4.6c.6-.2 1-.8 1-1.5.1-.1.1-9.7.1-9.7zm17.7 22.3l-3.3-2.2V8.1c0-2.2-2.3-4.6-3.8-5.8-.6-.5-1.4-.5-2 0-1.4 1.2-3.8 3.6-3.8 5.8v36.3l-3.7 2.4c-.6.5-1.1 1.2-1.1 2v.5c0 .4.3.7.7.7h17.7c.4 0 .9-.3.9-.7-.1-1.2-.7-2.1-1.6-2.8zm14-14.4l-11.2-8.6c-.6-.4-1.3 0-1.3.6v9.8c0 .6.4 1.3 1 1.5L49 40.1c.6.2 1-.2 1-.7v-3.3c0-1.6-.7-3.1-1.9-4z M0.7869999999999998 0.7869999999999998" fill="#fff"/></svg>