<svg xmlns="http://www.w3.org/2000/svg" width="52" height="100" viewBox="0 -24 100 100" weight="100"><path fill="#fff" d="M47.5 2c-.8 0-3.1.1-3.9.1-12.3.6-26.5 3.7-27.2 3.9-1 .3-1.6 1.3-1.6 2.2v26.2c-.8-.3-2.1-.5-3.2-.5-5.3 0-9.6 3.6-9.6 8s4.3 8 9.6 8 9.6-3.6 9.6-8V25.6c0-.7.5-1.4 1.2-1.5 3.9-1 9.4-2 19.5-2.6 1-.1 1.7.6 1.7 1.6v8.3c-.8-.3-2.1-.5-3.2-.5-5.3 0-9.6 3.6-9.6 8s4.3 8 9.6 8 9.6-3.6 9.6-8V4.4C50 3 48.9 1.9 47.5 2zm-5.4 12.7c-9.8.6-14.7 1.5-19 2.5-1 .2-1.9-.6-1.9-1.6v-2.5c0-.7.5-1.4 1.3-1.6 4.2-1 9.2-2 19.4-2.6 1-.1 1.7.6 1.7 1.6V13c0 1-.6 1.7-1.5 1.7z M0.5259999999999996 0.5259999999999996"/></svg>