<svg xmlns="http://www.w3.org/2000/svg" width="52" height="100" viewBox="0 -24 100 100" weight="100"><g fill="#fff"><path d="M49.6 22.1l-5.9-5.9c-.3-.3-.7-.5-1-.5h-6.1c-.8 0-1.5.7-1.5 1.5v12.1c0 .5.5.9 1.1.7 1-.5 2.2-.7 3.4-.7 3.4 0 6.3 1.9 7.9 4.7.2.4.8.5 1.1.2.9-.8 1.5-2 1.5-3.4v-7.7c-.1-.3-.2-.7-.5-1z M0.47299999999999953 0.47299999999999953"/><path d="M29 9H3.5C2.7 9 2 9.7 2 10.5v20.4c0 1.4.6 2.6 1.5 3.4.4.3.9.2 1.1-.2 1.5-2.8 4.5-4.7 7.9-4.7 3.8 0 6.9 2.3 8.3 5.6.1.3.4.5.7.5H26c2.5 0 4.5-2 4.5-4.5V10.5c0-.8-.7-1.5-1.5-1.5z"/><ellipse cx="39.5" cy="38.5" rx="4.5" ry="4.5"/><ellipse cx="12.5" cy="38.5" rx="4.5" ry="4.5"/></g></svg>