<svg xmlns="http://www.w3.org/2000/svg" width="52" height="100" viewBox="0 -24 100 100" weight="100"><path d="M12.5 33.3h9.8c.8 0 1.5-.7 1.5-1.5V9.9c0-1.6-1.5-2.9-3-2.9h-8c-1 0-1.7.7-1.7 1.7v23.2c-.1.7.6 1.4 1.4 1.4zm33-21.9v23.4c0 1.6-1.4 2.9-3 2.9h-33c-1.7 0-3-1.3-3-2.9V11.4c-2.5 0-4.5 2-4.5 4.4v21.9c0 2.4 2 4.4 4.5 4.4h14.2c.8 0 1.5.7 1.5 1.5s.7 1.5 1.5 1.5h4.5c.8 0 1.5-.7 1.5-1.5s.7-1.5 1.5-1.5h14.2c2.5 0 4.5-2 4.5-4.4V15.8c.1-2.4-1.9-4.4-4.4-4.4zM29.8 33.3h9.5c1 0 1.7-.7 1.7-1.7V8.5c0-.8-.7-1.5-1.5-1.5h-8.2c-1.5 0-3 1.3-3 2.9v21.9c-.1.8.6 1.5 1.5 1.5z M0.6029999999999996 0.6029999999999996" fill="#fff"/></svg>