<svg xmlns="http://www.w3.org/2000/svg" width="52" height="100" viewBox="0 -24 100 100" weight="100"><path d="M26 2C12.8 2 2 12.8 2 26s10.8 24 24 24 24-10.8 24-24S39.2 2 26 2zm0 41.6c-9.7 0-17.6-7.9-17.6-17.6S16.3 8.4 26 8.4 43.6 16.3 43.6 26 35.7 43.6 26 43.6zm9.3-27.9L22 20.5c-.7.2-1.3.8-1.5 1.5l-4.8 13.3c-.2.6.4 1.3 1 1L30 31.5c.7-.2 1.3-.8 1.5-1.5l4.8-13.3c.3-.6-.4-1.3-1-1zM26 29.2c-1.8 0-3.2-1.4-3.2-3.2s1.4-3.2 3.2-3.2 3.2 1.4 3.2 3.2-1.4 3.2-3.2 3.2z M0.5929999999999996 0.5929999999999996" fill="#fff"/></svg>