<svg xmlns="http://www.w3.org/2000/svg" width="52" height="100" viewBox="0 -24 100 100" weight="100"><path d="M15 11h4c.6 0 1-.4 1-1V8h10v2c0 .6.4 1 1 1h4c.6 0 1-.4 1-1V7.5c0-3-2.5-5.5-5.5-5.5H19.4c-3 0-5.4 2.4-5.4 5.4V10c0 .6.4 1 1 1zm17 23h2v-2c0-2.2 1.8-4 4-4h6c1.3 0 2.4.6 3.1 1.5.3.4.9.1.9-.3V19c0-2.2-1.8-4-4-4H6c-2.2 0-4 1.8-4 4v23c0 2.2 1.8 4 4 4h21.8c.4 0 .6-.3.5-.7-.2-.4-.3-.8-.3-1.3v-6c0-2.2 1.8-4 4-4zm16.5 4H44v-4.5c0-.8-.7-1.5-1.5-1.5h-3c-.8 0-1.5.7-1.5 1.5V38h-4.5c-.8 0-1.5.7-1.5 1.5v3c0 .8.7 1.5 1.5 1.5H38v4.5c0 .8.7 1.5 1.5 1.5h3c.8 0 1.5-.7 1.5-1.5V44h4.5c.8 0 1.5-.7 1.5-1.5v-3c0-.8-.7-1.5-1.5-1.5z M0.8269999999999998 0.8269999999999998" fill="#fff"/></svg>