<svg xmlns="http://www.w3.org/2000/svg" width="52" height="100" viewBox="0 -24 100 100" weight="100"><path fill="#fff" d="M46.8 2H5.2C3.4 2 2 3.4 2 5.2v6.4c0 1.8 1.4 3.2 3.2 3.2h41.6c1.8 0 3.2-1.4 3.2-3.2V5.2C50 3.4 48.6 2 46.8 2zm-20 9.6V5.2h20v6.4h-20zm20 8H5.2C3.4 19.6 2 21 2 22.8v6.4c0 1.8 1.4 3.2 3.2 3.2h41.6c1.8 0 3.2-1.4 3.2-3.2v-6.4c0-1.8-1.4-3.2-3.2-3.2zm-27.2 9.6v-6.4h27.2v6.4H19.6zm27.2 8H5.2c-1.8 0-3.2 1.4-3.2 3.2v6.4C2 48.6 3.4 50 5.2 50h41.6c1.8 0 3.2-1.4 3.2-3.2v-6.4c0-1.8-1.4-3.2-3.2-3.2zM34 46.8v-6.4h12.8v6.4H34z M0.4329999999999995 0.4329999999999995"/></svg>