<svg xmlns="http://www.w3.org/2000/svg" width="52" height="100" viewBox="0 -24 100 100" weight="100"><path fill="#fff" d="M13 4H7C5.3 4 4 5.3 4 7v6c0 1.7 1.3 3 3 3h6c1.7 0 3-1.3 3-3V7c0-1.7-1.3-3-3-3zm0 32H7c-1.7 0-3 1.3-3 3v6c0 1.7 1.3 3 3 3h6c1.7 0 3-1.3 3-3v-6c0-1.7-1.3-3-3-3zm0-16H7c-1.7 0-3 1.3-3 3v6c0 1.7 1.3 3 3 3h6c1.7 0 3-1.3 3-3v-6c0-1.7-1.3-3-3-3zM29 4h-6c-1.7 0-3 1.3-3 3v6c0 1.7 1.3 3 3 3h6c1.7 0 3-1.3 3-3V7c0-1.7-1.3-3-3-3zm0 32h-6c-1.7 0-3 1.3-3 3v6c0 1.7 1.3 3 3 3h6c1.7 0 3-1.3 3-3v-6c0-1.7-1.3-3-3-3zm0-16h-6c-1.7 0-3 1.3-3 3v6c0 1.7 1.3 3 3 3h6c1.7 0 3-1.3 3-3v-6c0-1.7-1.3-3-3-3zM45 4h-6c-1.7 0-3 1.3-3 3v6c0 1.7 1.3 3 3 3h6c1.7 0 3-1.3 3-3V7c0-1.7-1.3-3-3-3zm0 32h-6c-1.7 0-3 1.3-3 3v6c0 1.7 1.3 3 3 3h6c1.7 0 3-1.3 3-3v-6c0-1.7-1.3-3-3-3zm0-16h-6c-1.7 0-3 1.3-3 3v6c0 1.7 1.3 3 3 3h6c1.7 0 3-1.3 3-3v-6c0-1.7-1.3-3-3-3z M0.972 0.972"/></svg>