<svg xmlns="http://www.w3.org/2000/svg" width="52" height="100" viewBox="0 -24 100 100" weight="100"><path d="M2 19c0 5.8 2.3 11.3 6.4 15.4.9.9 2.2.9 3.1 0 .9-.9.9-2.3 0-3.2-3.2-3.2-5-7.6-5-12.2s1.8-9 5-12.2c.9-.9.9-2.3 0-3.2-.9-.9-2.2-.9-3.1 0C4.3 7.7 2 13.2 2 19zm12.7 9c.9.9 2.3.9 3.2 0 .9-.9.9-2.3 0-3.2-1.5-1.5-2.4-3.6-2.4-5.8 0-2.2.8-4.2 2.4-5.8.9-.9.9-2.3 0-3.2-.9-.9-2.3-.9-3.2 0-2.4 2.4-3.7 5.6-3.7 9 0 3.4 1.3 6.6 3.7 9zM43.5 3.6c-.9-.9-2.3-.9-3.2 0-.9.9-.9 2.3 0 3.2 3.2 3.2 5.1 7.6 5.1 12.2s-1.8 9-5.1 12.2c-.9.9-.9 2.3 0 3.2.9.9 2.3.9 3.2 0 4.1-4.1 6.4-9.6 6.4-15.4 0-5.8-2.3-11.3-6.4-15.4zM40.9 19c-.1-3.4-1.4-6.6-3.8-9-.9-.9-2.2-.9-3.1 0-.9.9-.9 2.3 0 3.2 1.5 1.6 2.4 3.6 2.4 5.8 0 2.2-.9 4.3-2.4 5.8-.9.9-.9 2.3 0 3.2.9.9 2.2.9 3.1 0 2.4-2.4 3.7-5.6 3.7-9zM23.7 24.4c-2.2-.9-3.6-3-3.6-5.5 0-3.2 2.6-5.8 5.8-5.8 3.2 0 5.9 2.6 5.9 5.8 0 2.5-1.5 4.5-3.6 5.4v23.6c0 .6-.6 1.2-1.2 1.1h-2.2c-.6 0-1.1-.5-1.1-1.1V24.4z M0.9359999999999999 0.9359999999999999" fill="#fff"/></svg>