<svg xmlns="http://www.w3.org/2000/svg" width="52" height="100" viewBox="0 -24 100 100" weight="100"><path fill="#fff" d="M48 6.5c0-.8-.7-1.5-1.5-1.5h-41C4.7 5 4 5.7 4 6.5v3c0 .8.7 1.5 1.5 1.5h41c.8 0 1.5-.7 1.5-1.5v-3zm-6 12c0-.8-.7-1.5-1.5-1.5h-29c-.8 0-1.5.7-1.5 1.5v3c0 .8.7 1.5 1.5 1.5h29c.8 0 1.5-.7 1.5-1.5v-3zm-2 24c0-.8-.7-1.5-1.5-1.5h-25c-.8 0-1.5.7-1.5 1.5v3c0 .8.7 1.5 1.5 1.5h25c.8 0 1.5-.7 1.5-1.5v-3zm8-12c0-.8-.7-1.5-1.5-1.5h-41c-.8 0-1.5.7-1.5 1.5v3c0 .8.7 1.5 1.5 1.5h41c.8 0 1.5-.7 1.5-1.5v-3z M0.9079999999999999 0.9079999999999999"/></svg>