<svg xmlns="http://www.w3.org/2000/svg" width="52" height="100" viewBox="0 -24 100 100" weight="100"><path fill="#fff" d="M20 37.5c0-.8-.7-1.5-1.5-1.5h-15c-.8 0-1.5.7-1.5 1.5v11c0 .8.7 1.5 1.5 1.5h15c.8 0 1.5-.7 1.5-1.5v-11zM8.1 22H3.2c-1 0-1.5.9-.9 1.4l8 8.3c.4.3 1 .3 1.4 0l8-8.3c.6-.6.1-1.4-.9-1.4h-4.7c0-5 4.9-10 9.9-10V6C15 6 8.1 13 8.1 22zm33.7-1.7c-.4-.3-1-.3-1.4 0l-8 8.3c-.6.6-.1 1.4.9 1.4h4.8c0 6-4.1 10-10.1 10v6c9 0 16.1-7 16.1-16H49c1 0 1.5-.9.9-1.4l-8.1-8.3zM50 3.5c0-.8-.7-1.5-1.5-1.5h-15c-.8 0-1.5.7-1.5 1.5v11c0 .8.7 1.5 1.5 1.5h15c.8 0 1.5-.7 1.5-1.5v-11z M0.8999999999999999 0.8999999999999999"/></svg>