<svg xmlns="http://www.w3.org/2000/svg" width="52" height="100" viewBox="0 -24 100 100" weight="100"><path fill="#fff" d="M26 4C12.7 4 2.1 13.8 2.1 25.9c0 3.8 1.1 7.4 2.9 10.6.3.5.4 1.1.2 1.7l-3.1 8.5c-.3.8.5 1.5 1.3 1.3l8.6-3.3c.5-.2 1.1-.1 1.7.2 3.6 2 7.9 3.2 12.5 3.2C39.3 48 50 38.3 50 26.1 49.9 13.8 39.2 4 26 4zM14 30c-2.2 0-4-1.8-4-4s1.8-4 4-4 4 1.8 4 4-1.8 4-4 4zm12 0c-2.2 0-4-1.8-4-4s1.8-4 4-4 4 1.8 4 4-1.8 4-4 4zm12 0c-2.2 0-4-1.8-4-4s1.8-4 4-4 4 1.8 4 4-1.8 4-4 4z M0.8919999999999999 0.8919999999999999"/></svg>