<svg xmlns="http://www.w3.org/2000/svg" width="52" height="100" viewBox="0 -24 100 100" weight="100"><path fill="#fff" d="M29.6 24H45c1 0 1.3-1.1.5-1.9l-4.9-5 9-9.1c.5-.5.5-1.4 0-1.9l-3.7-3.7c-.5-.4-1.3-.4-1.9.1l-9 9-5.1-4.9c-.8-.8-1.9-.5-1.9.5v15.4c0 .7.9 1.5 1.6 1.5zm-7.2 4H7c-1 0-1.3 1.1-.5 1.9l4.9 5-9 9.1c-.5.5-.5 1.4 0 1.9l3.7 3.7c.5.5 1.3.5 1.9 0l9.1-9.1 5.1 4.9c.7.9 1.8.6 1.8-.4V29.7c0-.7-.9-1.7-1.6-1.7zm5.6 1.6V45c0 1 1.1 1.3 1.9.5l5-4.9 9.1 9c.5.5 1.4.5 1.9 0l3.7-3.7c.4-.5.4-1.3-.1-1.9l-9-9 4.9-5.1c.8-.8.5-1.9-.5-1.9H29.5c-.7 0-1.5.9-1.5 1.6zm-4-7.2V7c0-1-1.1-1.3-1.9-.5l-5 4.9-9.1-9c-.5-.5-1.4-.5-1.9 0L2.4 6.1c-.5.5-.5 1.3 0 1.9l9.1 9.1-4.9 5.1c-.9.7-.6 1.8.4 1.8h15.3c.7 0 1.7-.9 1.7-1.6z M0.8399999999999999 0.8399999999999999"/></svg>