<svg xmlns="http://www.w3.org/2000/svg" width="52" height="100" viewBox="0 -24 100 100" weight="100"><path fill="#fff" d="M44 2H18c-2.2 0-4 1.8-4 4v2h24c2.2 0 4 1.8 4 4v28h2c2.2 0 4-1.8 4-4V6c0-2.2-1.8-4-4-4zm-6 14c0-2.2-1.8-4-4-4H8c-2.2 0-4 1.8-4 4v30c0 2.2 1.8 4 4 4h26c2.2 0 4-1.8 4-4V16zm-18 7c0 .6-.4 1-1 1h-8c-.6 0-1-.4-1-1v-2c0-.6.4-1 1-1h8c.6 0 1 .4 1 1v2zm8 16c0 .6-.4 1-1 1H11c-.6 0-1-.4-1-1v-2c0-.6.4-1 1-1h16c.6 0 1 .4 1 1v2zm4-8c0 .6-.4 1-1 1H11c-.6 0-1-.4-1-1v-2c0-.6.4-1 1-1h20c.6 0 1 .4 1 1v2z M0.8319999999999999 0.8319999999999999"/></svg>