<svg xmlns="http://www.w3.org/2000/svg" width="52" height="100" viewBox="0 -24 100 100" weight="100"><path fill="#fff" d="M45.4 9c0-3.8-8.7-6.9-19.4-6.9S6.6 5.2 6.6 9v2.4c0 3.8 8.7 6.9 19.4 6.9s19.4-3.1 19.4-6.9V9zM6.6 17c0 3 8.7 5.4 19.4 5.4S45.4 20 45.4 17v4.9c0 3.8-8.7 6.9-19.4 6.9S6.6 25.7 6.6 21.9V17zm0 0c0 3 8.7 5.4 19.4 5.4S45.4 20 45.4 17v4.9c0 3.8-8.7 6.9-19.4 6.9S6.6 25.7 6.6 21.9V17zm0 10.5c0 3 8.7 5.4 19.4 5.4s19.4-2.4 19.4-5.4v4.9c0 3.8-8.7 6.9-19.4 6.9s-19.4-3-19.4-6.8v-5zm0 10.6c0 3 8.7 5.4 19.4 5.4s19.4-2.4 19.4-5.4V43c0 3.8-8.7 6.9-19.4 6.9S6.6 46.8 6.6 43v-4.9z M0.8129999999999998 0.8129999999999998"/></svg>