<svg xmlns="http://www.w3.org/2000/svg" width="52" height="100" viewBox="0 -24 100 100" weight="100"><path fill="#fff" d="M44 7h-5V5c0-1.6-1.3-3-3-3-1.6 0-3 1.3-3 3v2H19V5c0-1.6-1.3-3-3-3-1.6 0-3 1.3-3 3v2H8c-2.2 0-4 1.8-4 4v2.5c0 .8.7 1.5 1.5 1.5h41c.8 0 1.5-.7 1.5-1.5V11c0-2.2-1.8-4-4-4zm2.5 13h-41c-.8 0-1.5.7-1.5 1.5V46c0 2.2 1.8 4 4 4h36c2.2 0 4-1.8 4-4V21.5c0-.8-.7-1.5-1.5-1.5zM29 42v.2c0 .8-1 1.8-2 1.8s-2-1-2-2V32l-1.5 1.6c-.3.3-.6.4-1 .4-.8 0-1.5-.7-1.5-1.5 0-.4.2-.8.5-1.1l3.9-3.9c.4-.4.9-.6 1.5-.6 1.1 0 2.1.9 2.1 2V42z M0.7709999999999998 0.7709999999999998"/></svg>