<svg xmlns="http://www.w3.org/2000/svg" width="52" height="100" viewBox="0 -24 100 100" weight="100"><path d="M45.5 10H33V6c0-2.2-1.8-4-4-4h-6c-2.2 0-4 1.8-4 4v4H6.5c-.8 0-1.5.7-1.5 1.5v3c0 .8.7 1.5 1.5 1.5h39c.8 0 1.5-.7 1.5-1.5v-3c0-.8-.7-1.5-1.5-1.5zM23 7c0-.6.4-1 1-1h4c.6 0 1 .4 1 1v3h-6V7zm18.5 13h-31c-.8 0-1.5.7-1.5 1.5V45c0 2.8 2.2 5 5 5h24c2.8 0 5-2.2 5-5V21.5c0-.8-.7-1.5-1.5-1.5zM23 42c0 .6-.4 1-1 1h-2c-.6 0-1-.4-1-1V28c0-.6.4-1 1-1h2c.6 0 1 .4 1 1v14zm10 0c0 .6-.4 1-1 1h-2c-.6 0-1-.4-1-1V28c0-.6.4-1 1-1h2c.6 0 1 .4 1 1v14z M0.7699999999999998 0.7699999999999998" fill="#fff"/></svg>