<svg xmlns="http://www.w3.org/2000/svg" width="52" height="100" viewBox="0 -24 100 100" weight="100"><path fill="#fff" d="M1.9 35V9c0-3.9 3.1-7 7-7h26c3.9 0 7 3.1 7 7v3h-6V9c0-.6-.4-1-1-1h-26c-.6 0-1 .4-1 1v26c0 .6.4 1 1 1h3v6h-3c-3.9 0-7-3.1-7-7zm44-19h-26c-2.2 0-4 1.8-4 4v26c0 2.2 1.8 4 4 4h26c2.2 0 4-1.8 4-4V20c0-2.2-1.8-4-4-4zm-4 25.2c0 .5-.3.8-.9.8H29.4c-.5 0-1-.5-1-.9v-1.8c0-.5.5-1 1-1h4.8c.6 0 .8-.6.5-1L24.3 26.9c-.4-.3-.4-.9 0-1.3l1.3-1.2c.3-.4.9-.4 1.2 0l10.4 10.4c.4.4 1 .1 1-.5v-4.8c0-.6.6-1 1.1-1h1.8c.5 0 .8.5.8 1v11.7z M0.7649999999999998 0.7649999999999998"/></svg>