<svg xmlns="http://www.w3.org/2000/svg" width="52" height="100" viewBox="0 -24 100 100" weight="100"><path d="M9.5 33.4l8.9 8.9c.4.4 1 .4 1.4 0L42 20c.4-.4.4-1 0-1.4l-8.8-8.8c-.4-.4-1-.4-1.4 0L9.5 32.1c-.4.4-.4 1 0 1.3zM36.1 5.7c-.4.4-.4 1 0 1.4l8.8 8.8c.4.4 1 .4 1.4 0l2.5-2.5c1.6-1.5 1.6-3.9 0-5.5l-4.7-4.7c-1.6-1.6-4.1-1.6-5.7 0l-2.3 2.5zm-34 42.5c-.2 1 .7 1.9 1.7 1.7l10.9-2.6c.4-.1.7-.3.9-.5l.2-.2c.2-.2.3-.9-.1-1.3l-9-9c-.4-.4-1.1-.3-1.3-.1l-.2.2c-.3.3-.4.6-.5.9L2.1 48.2z M0.7619999999999998 0.7619999999999998" fill="#fff"/></svg>