<svg xmlns="http://www.w3.org/2000/svg" width="52" height="100" viewBox="0 -24 100 100" weight="100"><path d="M24.4 31.8c-.6-.6-1.5-.6-2.1 0l-3.6 3.6c-.6.6-1.7.2-1.7-.7V21.5c0-.8-.7-1.5-1.5-1.5h-3c-.8 0-1.5.7-1.5 1.5v13.2c0 .9-1.1 1.3-1.7.7l-3.6-3.6c-.6-.6-1.5-.6-2.1 0L1.4 34c-.6.6-.6 1.5 0 2.1l11.5 11.5c.6.6 1.5.6 2.1 0L26.6 36c.6-.6.6-1.5 0-2.1l-2.2-2.1zM51 9.5c0-.8-.7-1.5-1.5-1.5h-37c-.8 0-1.5.7-1.5 1.5v3c0 .8.7 1.5 1.5 1.5h37c.8 0 1.5-.7 1.5-1.5v-3zm0 12c0-.8-.7-1.5-1.5-1.5h-27c-.8 0-1.5.7-1.5 1.5v3c0 .8.7 1.5 1.5 1.5h27c.8 0 1.5-.7 1.5-1.5v-3zm0 12c0-.8-.7-1.5-1.5-1.5h-17c-.8 0-1.5.7-1.5 1.5v3c0 .8.7 1.5 1.5 1.5h17c.8 0 1.5-.7 1.5-1.5v-3z M0.6919999999999997 0.6919999999999997" fill="#fff"/></svg>