<svg xmlns="http://www.w3.org/2000/svg" width="52" height="100" viewBox="0 -24 100 100" weight="100"><path d="M48.5 4h-45C2.7 4 2 4.7 2 5.5v5c0 .8.7 1.5 1.5 1.5h45c.8 0 1.5-.7 1.5-1.5v-5c-.1-.8-.7-1.5-1.5-1.5zM10.7 16h-7c-.8 0-1.5.7-1.5 1.5v29.8c0 .8.7 1.5 1.5 1.5h7c.8 0 1.5-.7 1.5-1.5V17.5c0-.8-.7-1.5-1.5-1.5zm37.8 0h-7c-.8 0-1.5.7-1.5 1.5v29.8c0 .8.7 1.5 1.5 1.5h7c.8 0 1.5-.7 1.5-1.5V17.5c0-.8-.7-1.5-1.5-1.5zm-14 0H17.7c-.8 0-1.5.7-1.5 1.5v29.8c0 .8.7 1.5 1.5 1.5h16.8c.8 0 1.5-.7 1.5-1.5V17.5c0-.8-.7-1.5-1.5-1.5z M0.6869999999999997 0.6869999999999997" fill="#fff"/></svg>