<svg xmlns="http://www.w3.org/2000/svg" width="52" height="100" viewBox="0 -24 100 100" weight="100"><path fill="#fff" d="M26 2C12.7 2 2 12.7 2 26s10.7 24 24 24 24-10.7 24-24S39.3 2 26 2zm0 42C16 44 8 36 8 26S16 8 26 8s18 8 18 18-8 18-18 18zm0-29.9c1.7 0 3 1.3 3 3s-1.3 3-3 3-3-1.3-3-3 1.3-3 3-3zm5 21c0 .5-.4.9-1 .9h-8c-.5 0-1-.3-1-.9v-2c0-.5.4-1.1 1-1.1.5 0 1-.3 1-.9v-4c0-.5-.4-1.1-1-1.1-.5 0-1-.3-1-.9v-2c0-.5.4-1.1 1-1.1h6c.5 0 1 .5 1 1.1v8c0 .5.4.9 1 .9.5 0 1 .5 1 1.1v2z M0.6309999999999997 0.6309999999999997"/></svg>