<svg xmlns="http://www.w3.org/2000/svg" width="52" height="100" viewBox="0 -24 100 100" weight="100"><path fill="#fff" d="M16.3 12.2L14 10.3c-.7-.5-1.5-.4-2.1.2L.3 25.1c-.4.5-.4 1.3 0 1.9L12 41.5c.5.6 1.4.8 2.1.2l2.3-1.9c.7-.5.8-1.5.2-2.1L7.2 26l9.5-11.7c.4-.6.3-1.5-.4-2.1zm35.4 12.9L40 10.6c-.5-.6-1.4-.8-2.1-.2l-2.3 1.9c-.7.5-.8 1.5-.2 2.1l9.5 11.7-9.5 11.7c-.5.6-.4 1.6.2 2.1l2.3 1.9c.7.5 1.5.4 2.1-.2L51.7 27c.4-.7.4-1.4 0-1.9zM31.6 10.8l-3-.7c-.8-.2-1.7.3-1.9 1.1l-7.4 28.4c-.2.8.3 1.6 1.1 1.8l3 .7c.8.2 1.7-.3 1.9-1.1l7.4-28.4c.2-.9-.3-1.6-1.1-1.8z M0.6299999999999997 0.6299999999999997"/></svg>