<svg xmlns="http://www.w3.org/2000/svg" width="52" height="100" viewBox="0 -24 100 100" weight="100"><path d="M40.6 30.4L27.1 44c-.6.6-1.6.6-2.2 0L11.4 30.4c-.6-.6-.6-1.6 0-2.2l2.2-2.2c.6-.6 1.6-.6 2.2 0l9.1 9.4c.6.6 1.6.6 2.2 0l9.1-9.3c.6-.6 1.6-.6 2.2 0l2.2 2.2c.5.6.5 1.5 0 2.1zm0-18.1L27.1 26.1c-.6.6-1.6.6-2.2 0L11.4 12.3c-.6-.6-.6-1.6 0-2.2l2.2-2.2c.6-.6 1.6-.6 2.2 0l9.1 9.4c.6.6 1.6.6 2.2 0L36.2 8c.6-.6 1.6-.6 2.2 0l2.2 2.2c.5.6.5 1.6 0 2.1z M0.6269999999999997 0.6269999999999997" fill="#fff"/></svg>