<svg xmlns="http://www.w3.org/2000/svg" width="52" height="100" viewBox="0 -24 100 100" weight="100"><path d="M11.4 21.6L24.9 7.9c.6-.6 1.6-.6 2.2 0l13.5 13.7c.6.6.6 1.6 0 2.2L38.4 26c-.6.6-1.6.6-2.2 0l-9.1-9.4c-.6-.6-1.6-.6-2.2 0l-9.1 9.3c-.6.6-1.6.6-2.2 0l-2.2-2.2c-.5-.6-.5-1.5 0-2.1zm0 18.1L24.9 26c.6-.6 1.6-.6 2.2 0l13.5 13.7c.6.6.6 1.6 0 2.2l-2.2 2.2c-.6.6-1.6.6-2.2 0l-9.1-9.4c-.6-.6-1.6-.6-2.2 0L15.8 44c-.6.6-1.6.6-2.2 0l-2.2-2.2c-.5-.6-.5-1.6 0-2.1z M0.6259999999999997 0.6259999999999997" fill="#fff"/></svg>