<svg xmlns="http://www.w3.org/2000/svg" width="52" height="100" viewBox="0 -24 100 100" weight="100"><path fill="#fff" d="M48 6.5c0-.8-.7-1.5-1.5-1.5h-41C4.7 5 4 5.7 4 6.5v3c0 .8.7 1.5 1.5 1.5h41c.8 0 1.5-.7 1.5-1.5v-3zm0 12c0-.8-.7-1.5-1.5-1.5h-41c-.8 0-1.5.7-1.5 1.5v3c0 .8.7 1.5 1.5 1.5h41c.8 0 1.5-.7 1.5-1.5v-3zm0 24c0-.8-.7-1.5-1.5-1.5h-41c-.8 0-1.5.7-1.5 1.5v3c0 .8.7 1.5 1.5 1.5h41c.8 0 1.5-.7 1.5-1.5v-3zm0-12c0-.8-.7-1.5-1.5-1.5h-41c-.8 0-1.5.7-1.5 1.5v3c0 .8.7 1.5 1.5 1.5h41c.8 0 1.5-.7 1.5-1.5v-3z M0.6249999999999997 0.6249999999999997"/></svg>