<svg xmlns="http://www.w3.org/2000/svg" width="52" height="100" viewBox="0 -24 100 100" weight="100"><path fill="#fff" d="M32 17.5c0-.8-.7-1.5-1.5-1.5h-9c-.8 0-1.5.7-1.5 1.5v27c0 .8.7 1.5 1.5 1.5h9c.8 0 1.5-.7 1.5-1.5v-27zm-18 0c0-.8-.7-1.5-1.5-1.5h-9c-.8 0-1.5.7-1.5 1.5v31c0 .8.7 1.5 1.5 1.5h9c.8 0 1.5-.7 1.5-1.5v-31zm36 0c0-.8-.7-1.5-1.5-1.5h-9c-.8 0-1.5.7-1.5 1.5v23c0 .8.7 1.5 1.5 1.5h9c.8 0 1.5-.7 1.5-1.5v-23zm0-14c0-.8-.7-1.5-1.5-1.5h-45C2.7 2 2 2.7 2 3.5v5c0 .8.7 1.5 1.5 1.5h45c.8 0 1.5-.7 1.5-1.5v-5z M0.6239999999999997 0.6239999999999997"/></svg>