<svg xmlns="http://www.w3.org/2000/svg" width="52" height="100" viewBox="0 -24 100 100" weight="100"><path fill="#fff" d="M48 34.1c1.1 0 2-.9 2-2v-26c0-1.1-.9-2-2-2H4c-1.1 0-2 .9-2 2v26c0 1.1.9 2 2 2h44zm-42-4v-22h40v22H6zm7.7-16.7c0 .8-.7 1.5-1.5 1.5h-1c-.8 0-1.5-.7-1.5-1.5v-1c0-.8.7-1.5 1.5-1.5h1c.8 0 1.5.7 1.5 1.5v1zm5.7-1c0-.8-.7-1.5-1.5-1.5h-1c-.8 0-1.5.7-1.5 1.5v1c0 .8.7 1.5 1.5 1.5h1c.8 0 1.5-.7 1.5-1.5v-1zm11.5 1c0 .8-.7 1.5-1.5 1.5h-1c-.8 0-1.5-.7-1.5-1.5v-1c0-.8.7-1.5 1.5-1.5h1c.8 0 1.5.7 1.5 1.5v1zm-5.8 0c0 .8-.7 1.5-1.5 1.5h-1c-.8 0-1.5-.7-1.5-1.5v-1c0-.8.7-1.5 1.5-1.5h1c.8 0 1.5.7 1.5 1.5v1zm17.3-1c0-.8-.7-1.5-1.5-1.5h-1c-.8 0-1.5.7-1.5 1.5v1c0 .8.7 1.5 1.5 1.5h1c.8 0 1.5-.7 1.5-1.5v-1zm-5.8 0c0-.8-.7-1.5-1.5-1.5h-1c-.8 0-1.5.7-1.5 1.5v1c0 .8.7 1.5 1.5 1.5h1c.8 0 1.5-.7 1.5-1.5v-1zm-22.9 7c0 .8-.7 1.5-1.5 1.5h-1c-.8 0-1.5-.7-1.5-1.5v-1c0-.8.7-1.5 1.5-1.5h1c.8 0 1.5.7 1.5 1.5v1zm5.7-1c0-.8-.7-1.5-1.5-1.5h-1c-.8 0-1.5.7-1.5 1.5v1c0 .8.7 1.5 1.5 1.5h1c.8 0 1.5-.7 1.5-1.5v-1zm11.5 1c0 .8-.7 1.5-1.5 1.5h-1c-.8 0-1.5-.7-1.5-1.5v-1c0-.8.7-1.5 1.5-1.5h1c.8 0 1.5.7 1.5 1.5v1zm-5.8 0c0 .8-.7 1.5-1.5 1.5h-1c-.8 0-1.5-.7-1.5-1.5v-1c0-.8.7-1.5 1.5-1.5h1c.8 0 1.5.7 1.5 1.5v1zm17.3-1c0-.8-.7-1.5-1.5-1.5h-1c-.8 0-1.5.7-1.5 1.5v1c0 .8.7 1.5 1.5 1.5h1c.8 0 1.5-.7 1.5-1.5v-1zm-5.8 0c0-.8-.7-1.5-1.5-1.5h-1c-.8 0-1.5.7-1.5 1.5v1c0 .8.7 1.5 1.5 1.5h1c.8 0 1.5-.7 1.5-1.5v-1zm-22.9 7c0 .8-.7 1.5-1.5 1.5h-1c-.8 0-1.5-.7-1.5-1.5v-1c0-.8.7-1.5 1.5-1.5h1c.8 0 1.5.7 1.5 1.5v1zm22.9-1c0-.8-.7-1.5-1.5-1.5H16.9c-.8 0-1.5.7-1.5 1.5v1c0 .8.7 1.5 1.5 1.5h18.2c.8 0 1.5-.7 1.5-1.5v-1zm5.8 0c0-.8-.7-1.5-1.5-1.5h-1c-.8 0-1.5.7-1.5 1.5v1c0 .8.7 1.5 1.5 1.5h1c.8 0 1.5-.7 1.5-1.5v-1zM18.1 37.2h15.8c.5 0 .8.6.4 1l-7.7 9.5c-.3.3-.9.3-1.1 0l-7.8-9.5c-.3-.4-.1-1 .4-1z M0.6229999999999997 0.6229999999999997"/></svg>