<svg xmlns="http://www.w3.org/2000/svg" width="52" height="100" viewBox="0 -24 100 100" weight="100"><path d="M9.5 35h13c.8 0 1.5-.7 1.5-1.5V10c0-1.7-1.8-3-3.2-3H9.5C8.7 7 8 7.7 8 8.5v25c0 .8.7 1.5 1.5 1.5zm39.7-23.4c-.6-.2-1.2.3-1.2 1v24.9c0 .8-.7 1.5-1.5 1.5h-41c-.8 0-1.5-.7-1.5-1.5V12.7c0-.7-.8-1.2-1.4-.9C1.1 12.5 0 14.1 0 16v23c0 2.2 1.8 4 4 4h16.5c.8 0 1.5.7 1.5 1.5s.7 1.5 1.5 1.5h5c.8 0 1.5-.7 1.5-1.5s.7-1.5 1.5-1.5H48c2.2 0 4-1.8 4-4V16c0-2.1-.7-3.9-2.8-4.4zM29.5 35h13c.8 0 1.5-.7 1.5-1.5v-25c0-.8-.7-1.5-1.5-1.5H31.2C29.7 7 28 8.3 28 10v23.5c0 .8.7 1.5 1.5 1.5z M0.6219999999999997 0.6219999999999997" fill="#fff"/></svg>