<svg xmlns="http://www.w3.org/2000/svg" width="52" height="100" viewBox="0 -24 100 100" weight="100"><path d="M28.2 21c-.4-.4-1-.4-1.4 0L2.9 44.9c-1.2 1.2-1.2 3 0 4.2 1.2 1.2 3 1.2 4.2 0L31 25.2c.4-.4.4-1 0-1.4L28.2 21zm7 0l3.2-3.2c.6-.6.6-1.5 0-2.1l-2.1-2.1c-.6-.6-1.5-.6-2.1 0L31 16.8c-.4.4-.4 1 0 1.4l2.8 2.8c.4.4 1 .4 1.4 0zm-24.8-9.4c3.8 1.2 6.8 4.1 8 8 .2.6 1 .6 1.2 0 1.2-3.8 4.1-6.8 8-8 .6-.2.6-1 0-1.2-3.8-1.2-6.8-4.1-8-8-.2-.6-1-.6-1.2 0-1.2 3.8-4.1 6.8-8 8-.5.2-.5 1 0 1.2zm39.2 18.9c-3.4-1.1-6-3.7-7.1-7.1-.2-.5-.9-.5-1.1 0-1.1 3.4-3.7 6-7.1 7.1-.5.2-.5.9 0 1.1 3.4 1.1 6 3.7 7.1 7.1.2.5.9.5 1.1 0 1.1-3.4 3.7-6 7.1-7.1.5-.2.5-1 0-1.1zM38.3 8.4c2.6.8 4.5 2.7 5.3 5.3.1.4.7.4.8 0 .8-2.6 2.7-4.5 5.3-5.3.4-.1.4-.7 0-.8-2.6-.8-4.5-2.7-5.3-5.3-.1-.4-.7-.4-.8 0-.8 2.6-2.7 4.5-5.3 5.3-.4.1-.4.7 0 .8z M0.5759999999999996 0.5759999999999996" fill="#fff"/></svg>