<svg xmlns="http://www.w3.org/2000/svg" width="52" height="100" viewBox="0 -24 100 100" weight="100"><path fill="#fff" d="M24 7l-1.7-1.7c-.5-.5-1.2-.5-1.7 0L10 15.8l-4.3-4.2c-.5-.5-1.2-.5-1.7 0l-1.7 1.7c-.5.5-.5 1.2 0 1.7l5.9 5.9c.5.5 1.1.7 1.7.7.6 0 1.2-.2 1.7-.7L24 8.7c.4-.4.4-1.2 0-1.7zm24.4 11.4H27.5c-.9 0-1.6-.7-1.6-1.6v-3.2c0-.9.7-1.6 1.6-1.6h20.9c.9 0 1.6.7 1.6 1.6v3.2c0 .9-.7 1.6-1.6 1.6zm0 14.3H9.8c-.9 0-1.6-.7-1.6-1.6v-3.2c0-.9.7-1.6 1.6-1.6h38.6c.9 0 1.6.7 1.6 1.6v3.2c0 .9-.7 1.6-1.6 1.6zm0 14.3H9.8c-.9 0-1.6-.7-1.6-1.6v-3.2c0-.9.7-1.6 1.6-1.6h38.6c.9 0 1.6.7 1.6 1.6v3.2c0 .9-.7 1.6-1.6 1.6z M0.5749999999999996 0.5749999999999996"/></svg>