<svg xmlns="http://www.w3.org/2000/svg" width="52" height="100" viewBox="0 -24 100 100" weight="100"><path fill="#fff" d="M48 3.5c0-.8-.7-1.5-1.5-1.5h-31c-.8 0-1.5.7-1.5 1.5v5c0 .8.7 1.5 1.5 1.5h31c.8 0 1.5-.7 1.5-1.5v-5zm-38 12c0-.8-.7-1.5-1.5-1.5h-3c-.8 0-1.5.7-1.5 1.5v13c0 .8.7 1.5 1.5 1.5h3c.8 0 1.5-.7 1.5-1.5v-13zm0 20c0-.8-.7-1.5-1.5-1.5h-3c-.8 0-1.5.7-1.5 1.5v13c0 .8.7 1.5 1.5 1.5h3c.8 0 1.5-.7 1.5-1.5v-13zm19-20c0-.8-.7-1.5-1.5-1.5h-12c-.8 0-1.5.7-1.5 1.5v3c0 .8.7 1.5 1.5 1.5h12c.8 0 1.5-.7 1.5-1.5v-3zm19 0c0-.8-.7-1.5-1.5-1.5h-12c-.8 0-1.5.7-1.5 1.5v3c0 .8.7 1.5 1.5 1.5h12c.8 0 1.5-.7 1.5-1.5v-3zm-19 10c0-.8-.7-1.5-1.5-1.5h-12c-.8 0-1.5.7-1.5 1.5v3c0 .8.7 1.5 1.5 1.5h12c.8 0 1.5-.7 1.5-1.5v-3zm19 0c0-.8-.7-1.5-1.5-1.5h-12c-.8 0-1.5.7-1.5 1.5v3c0 .8.7 1.5 1.5 1.5h12c.8 0 1.5-.7 1.5-1.5v-3zm-19 10c0-.8-.7-1.5-1.5-1.5h-12c-.8 0-1.5.7-1.5 1.5v3c0 .8.7 1.5 1.5 1.5h12c.8 0 1.5-.7 1.5-1.5v-3zm19 0c0-.8-.7-1.5-1.5-1.5h-12c-.8 0-1.5.7-1.5 1.5v3c0 .8.7 1.5 1.5 1.5h12c.8 0 1.5-.7 1.5-1.5v-3zm-19 10c0-.8-.7-1.5-1.5-1.5h-12c-.8 0-1.5.7-1.5 1.5v3c0 .8.7 1.5 1.5 1.5h12c.8 0 1.5-.7 1.5-1.5v-3zm19 0c0-.8-.7-1.5-1.5-1.5h-12c-.8 0-1.5.7-1.5 1.5v3c0 .8.7 1.5 1.5 1.5h12c.8 0 1.5-.7 1.5-1.5v-3z M0.5739999999999996 0.5739999999999996"/></svg>