<svg xmlns="http://www.w3.org/2000/svg" width="52" height="100" viewBox="0 -24 100 100" weight="100"><path fill="#fff" d="M50.5 6h-41C8.7 6 8 6.7 8 7.5V38c0 1.2-1.1 2.2-2.3 2-1-.2-1.7-1.1-1.7-2.1V16c0-.6-.4-1-1-1H1.5c-.8 0-1.5.7-1.5 1.5V42c0 2.2 1.8 4 4 4h44c2.2 0 4-1.8 4-4V7.5c0-.8-.7-1.5-1.5-1.5zM28 35c0 .6-.4 1-1 1H15c-.6 0-1-.4-1-1v-2c0-.6.4-1 1-1h12c.6 0 1 .4 1 1v2zm0-8c0 .6-.4 1-1 1H15c-.6 0-1-.4-1-1v-2c0-.6.4-1 1-1h12c.6 0 1 .4 1 1v2zm18 8c0 .6-.4 1-1 1H33c-.6 0-1-.4-1-1v-2c0-.6.4-1 1-1h12c.6 0 1 .4 1 1v2zm0-8c0 .6-.4 1-1 1H33c-.6 0-1-.4-1-1v-2c0-.6.4-1 1-1h12c.6 0 1 .4 1 1v2zm0-8c0 .6-.4 1-1 1H15c-.6 0-1-.4-1-1v-6c0-.6.4-1 1-1h30c.6 0 1 .4 1 1v6z M0.5149999999999996 0.5149999999999996"/></svg>