<svg xmlns="http://www.w3.org/2000/svg" width="52" height="100" viewBox="0 -24 100 100" weight="100"><path fill="#fff" d="M37.3 9.9H15.8c-2.1 0-3.7 1.7-3.7 3.7v.6c0 .3.3.6.6.6h19.6c2.1 0 3.7 1.7 3.7 3.7v22.1c0 .3.3.6.6.6h.6c2.1 0 3.7-1.7 3.7-3.7V13.6c.1-2-1.6-3.7-3.6-3.7zm8-7.9H23.8c-2.1 0-3.7 1.7-3.7 3.7v.6c0 .3.3.6.6.6h19.6c2.1 0 3.7 1.7 3.7 3.7v22.1c0 .3.3.6.6.6h.6c2.1 0 3.7-1.7 3.7-3.7V5.7c.1-2-1.6-3.7-3.6-3.7zM32.6 21.8c0-2-1.7-3.7-3.7-3.7H6.7c-2.1 0-3.7 1.7-3.7 3.7v24.5c0 2 1.7 3.7 3.7 3.7h22.2c2.1 0 3.7-1.7 3.7-3.7V21.8z M0.48599999999999954 0.48599999999999954"/></svg>