<svg xmlns="http://www.w3.org/2000/svg" width="52" height="100" viewBox="0 -24 100 100" weight="100"><path d="M44.3 6.5c-9 0-15.9 7-15.9 16V44c0 .8.7 1.5 1.5 1.5h17c.8 0 1.5-.7 1.5-1.5V27c0-.8-.7-1.5-1.5-1.5H34.4v-3c0-5 4.9-10 9.9-10h2.6c.8 0 1.5-.7 1.5-1.5V8c0-.8-.7-1.5-1.5-1.5h-2.6zm-24.8 0c-9 0-15.9 7-15.9 16V44c0 .8.7 1.5 1.5 1.5h17c.8 0 1.5-.7 1.5-1.5V27c0-.8-.7-1.5-1.5-1.5H9.6v-3c0-5 4.9-10 9.9-10h2.6c.8 0 1.5-.7 1.5-1.5V8c0-.8-.7-1.5-1.5-1.5h-2.6z M0.4499999999999995 0.4499999999999995" fill="#fff"/></svg>