<svg xmlns="http://www.w3.org/2000/svg" width="52" height="100" viewBox="0 -24 100 100" weight="100"><path fill="#fff" d="M45.1 40.9l4.6-4.6c.4-.4.4-1 0-1.4l-2.8-2.8c-.4-.4-1-.4-1.4 0L41 36.8l-4.3-4.3c-.4-.4-1-.4-1.4 0l-2.8 2.8c-.4.4-.4 1 0 1.4l4.3 4.3-4.2 4.2c-.4.4-.4 1 0 1.4l2.8 2.8c.4.4 1 .4 1.4 0l4.2-4.2 4.5 4.5c.4.4 1 .4 1.4 0l2.8-2.8c.4-.4.4-1 0-1.4l-4.6-4.6zM4.8 8h10.8l-4.1 23.2c-.2 1 .5 1.8 1.4 1.8H18c.7 0 1.4-.5 1.5-1.2L23.7 8h11c.7 0 1.4-.5 1.5-1.3l.5-3c.2-.9-.5-1.7-1.5-1.7h-30c-.7 0-1.3.5-1.4 1.3l-.5 3c-.2.9.5 1.7 1.5 1.7zM28 38.5c0-.8-.7-1.5-1.5-1.5h-23c-.8 0-1.5.7-1.5 1.5v3c0 .8.7 1.5 1.5 1.5h23c.8 0 1.5-.7 1.5-1.5v-3z M0.4439999999999995 0.4439999999999995"/></svg>