<svg xmlns="http://www.w3.org/2000/svg" width="52" height="100" viewBox="0 -24 100 100" weight="100"><path fill="#fff" d="M26.7 29c2-2.9 4.1-4.3 5.5-6.5 2.5-3.7 3-9 1.4-13C32 5.4 28.2 3 23.8 3.1s-8 2.8-9.4 6.9c-1.6 4.5-.9 9.9 2.7 13.3 1.5 1.4 2.9 3.6 2.1 5.7-.7 2-3.1 2.9-4.8 3.7-3.9 1.7-8.6 4.1-9.4 8.7-.8 3.8 1.8 7.7 5.9 7.7h18c.8 0 1.5-.9 1-1.5-2.5-2.9-5.1-6.7-5.1-10.5-.2-2.7.6-5.7 1.9-8.1zm11 10.4c-2.1 0-3.9-1.7-3.9-3.8s1.7-3.8 3.9-3.8c2.1 0 3.9 1.7 3.9 3.8 0 2.1-1.8 3.8-3.9 3.8zm0-13c-5.1 0-9.2 4.1-9.2 9.2 0 6.3 6.6 12.2 8.6 13.7.3.3.8.3 1.2 0 2-1.6 8.6-7.4 8.6-13.7 0-5.1-4.1-9.2-9.2-9.2z M0.4199999999999995 0.4199999999999995"/></svg>