<svg xmlns="http://www.w3.org/2000/svg" width="52" height="100" viewBox="0 -24 100 100" weight="100"><path fill="#fff" d="M16.4 22H10v-5.9c0-1-.9-1.5-1.4-.9l-8.3 9c-.3.4-.3 1 0 1.4l8.3 9c.6.6 1.4.1 1.4-.9V28h6.4c.8 0 1.6-.7 1.6-1.5v-3c0-.8-.8-1.5-1.6-1.5zM52 11.5c0-.8-.7-1.5-1.5-1.5h-17c-.8 0-1.5.7-1.5 1.5v3c0 .8.7 1.5 1.5 1.5h17c.8 0 1.5-.7 1.5-1.5v-3zm-4 24c0-.8-.7-1.5-1.5-1.5h-13c-.8 0-1.5.7-1.5 1.5v3c0 .8.7 1.5 1.5 1.5h13c.8 0 1.5-.7 1.5-1.5v-3zm4-12c0-.8-.7-1.5-1.5-1.5h-17c-.8 0-1.5.7-1.5 1.5v3c0 .8.7 1.5 1.5 1.5h17c.8 0 1.5-.7 1.5-1.5v-3zm-24-18c0-.8-.7-1.5-1.5-1.5h-3c-.8 0-1.5.7-1.5 1.5v41c0 .8.7 1.5 1.5 1.5h3c.8 0 1.5-.7 1.5-1.5v-41z M0.4149999999999995 0.4149999999999995"/></svg>