<svg xmlns="http://www.w3.org/2000/svg" width="52" height="100" viewBox="0 -24 100 100" weight="100"><path fill="#fff" d="M8 13.5c0 .8-.7 1.5-1.5 1.5h-3c-.8 0-1.5-.7-1.5-1.5v-3C2 9.7 2.7 9 3.5 9h3c.8 0 1.5.7 1.5 1.5v3zm42-3c0-.8-.7-1.5-1.5-1.5h-35c-.8 0-1.5.7-1.5 1.5v3c0 .8.7 1.5 1.5 1.5h35c.8 0 1.5-.7 1.5-1.5v-3zm-42 14c0-.8-.7-1.5-1.5-1.5h-3c-.8 0-1.5.7-1.5 1.5v3c0 .8.7 1.5 1.5 1.5h3c.8 0 1.5-.7 1.5-1.5v-3zm38 0c0-.8-.7-1.5-1.5-1.5h-31c-.8 0-1.5.7-1.5 1.5v3c0 .8.7 1.5 1.5 1.5h31c.8 0 1.5-.7 1.5-1.5v-3zm-38 14c0-.8-.7-1.5-1.5-1.5h-3c-.8 0-1.5.7-1.5 1.5v3c0 .8.7 1.5 1.5 1.5h3c.8 0 1.5-.7 1.5-1.5v-3zm42 0c0-.8-.7-1.5-1.5-1.5h-35c-.8 0-1.5.7-1.5 1.5v3c0 .8.7 1.5 1.5 1.5h35c.8 0 1.5-.7 1.5-1.5v-3z M0.4179999999999995 0.4179999999999995"/></svg>