<svg xmlns="http://www.w3.org/2000/svg" width="52" height="100" viewBox="0 -24 100 100" weight="100"><path fill="#fff" d="M46.5 5h-41C4.7 5 4 5.7 4 6.5v3c0 .8.7 1.5 1.5 1.5h41c.8 0 1.5-.7 1.5-1.5v-3c0-.8-.7-1.5-1.5-1.5zm0 12h-33c-.8 0-1.5.7-1.5 1.5v3c0 .8.7 1.5 1.5 1.5h33c.8 0 1.5-.7 1.5-1.5v-3c0-.8-.7-1.5-1.5-1.5zm0 24h-33c-.8 0-1.5.7-1.5 1.5v3c0 .8.7 1.5 1.5 1.5h33c.8 0 1.5-.7 1.5-1.5v-3c0-.8-.7-1.5-1.5-1.5zm0-12h-41c-.8 0-1.5.7-1.5 1.5v3c0 .8.7 1.5 1.5 1.5h41c.8 0 1.5-.7 1.5-1.5v-3c0-.8-.7-1.5-1.5-1.5z M0.4129999999999995 0.4129999999999995"/></svg>