<svg xmlns="http://www.w3.org/2000/svg" width="52" height="100" viewBox="0 -24 100 100" weight="100"><path d="M42 50.4c2.2 0 4-1.8 4-4V19.5c0-2.2-1.8-4-4-4h-7.5c-.8 0-1.5.7-1.5 1.5v3c0 .8.7 1.5 1.5 1.5h4c.8 0 1.5.7 1.5 1.5v19.9c0 .8-.7 1.5-1.5 1.5h-25c-.8 0-1.5-.7-1.5-1.5V23c0-.8.7-1.5 1.5-1.5h4c.8 0 1.5-.7 1.5-1.5v-3c0-.8-.7-1.5-1.5-1.5H10c-2.2 0-4 1.8-4 4v26.9c0 2.2 1.8 4 4 4h32zM29 30.9V11.5h5.9c1 0 1.5-.9.9-1.4l-9-8.3c-.4-.3-1-.3-1.4 0l-9 8.3c-.6.6-.1 1.4.9 1.4H23v19.4c0 .8.7 1.6 1.5 1.6h3c.8 0 1.5-.8 1.5-1.6z M0.40399999999999947 0.40399999999999947" fill="#fff"/></svg>