<svg xmlns="http://www.w3.org/2000/svg" width="52" height="100" viewBox="0 -24 100 100" weight="100"><path fill="#fff" d="M48.5 4h-27c-.8 0-1.5.7-1.5 1.5v41c0 .8.7 1.5 1.5 1.5h27c.8 0 1.5-.7 1.5-1.5v-41c0-.8-.7-1.5-1.5-1.5zm-34 0h-11C2.7 4 2 4.7 2 5.5v5c0 .8.7 1.5 1.5 1.5h11c.8 0 1.5-.7 1.5-1.5v-5c0-.8-.7-1.5-1.5-1.5zm0 12h-11c-.8 0-1.5.7-1.5 1.5v5c0 .8.7 1.5 1.5 1.5h11c.8 0 1.5-.7 1.5-1.5v-5c0-.8-.7-1.5-1.5-1.5zm0 12h-11c-.8 0-1.5.7-1.5 1.5v5c0 .8.7 1.5 1.5 1.5h11c.8 0 1.5-.7 1.5-1.5v-5c0-.8-.7-1.5-1.5-1.5zm0 12h-11c-.8 0-1.5.7-1.5 1.5v5c0 .8.7 1.5 1.5 1.5h11c.8 0 1.5-.7 1.5-1.5v-5c0-.8-.7-1.5-1.5-1.5z M0.40099999999999947 0.40099999999999947"/></svg>