<svg xmlns="http://www.w3.org/2000/svg" width="52" height="100" viewBox="0 -24 100 100" weight="100"><path d="M49.5 9l-4.2-3.1c-.6-.4-1.2-.6-1.9-.6H29.2V3.6c0-.9-.7-1.6-1.6-1.6h-3.2c-.9 0-1.6.7-1.6 1.6v1.6h-16c-.9 0-1.6.7-1.6 1.6v6.4c0 .9.7 1.6 1.6 1.6h36.6c.7 0 1.4-.2 1.9-.6l4.2-3.1c.7-.6.7-1.6 0-2.1zm-4.3 13.8h-16v-2.4c0-.5-.3-.8-.8-.8h-4.8c-.5 0-.8.3-.8.8v2.4H8.6c-.7 0-1.4.2-1.9.6l-4.2 3.1c-.7.5-.7 1.5 0 2.1l4.2 3.1c.6.4 1.2.6 1.9.6h36.6c.9 0 1.6-.7 1.6-1.6v-6.4c0-.8-.7-1.5-1.6-1.5zm-16 20.5V38c0-.5-.3-.8-.8-.8h-4.8c-.5 0-.8.3-.8.8v5.3c-3.2.9-5 2.8-5.5 5.2-.2.7.4 1.5 1.2 1.5h15.1c.8 0 1.4-.7 1.2-1.5-.6-2.4-2.4-4.3-5.6-5.2z M0.39999999999999947 0.39999999999999947" fill="#fff"/></svg>