<svg xmlns="http://www.w3.org/2000/svg" width="52" height="100" viewBox="0 -24 100 100" weight="100"><path fill="#fff" d="M14.5 6h-11C2.7 6 2 6.7 2 7.5v13c0 .8.7 1.5 1.5 1.5h11c.8 0 1.5-.7 1.5-1.5v-13c0-.8-.7-1.5-1.5-1.5zm34 0h-27c-.8 0-1.5.7-1.5 1.5v3c0 .8.7 1.5 1.5 1.5h27c.8 0 1.5-.7 1.5-1.5v-3c0-.8-.7-1.5-1.5-1.5zm-27 16h17c.8 0 1.5-.7 1.5-1.5v-3c0-.8-.7-1.5-1.5-1.5h-17c-.8 0-1.5.7-1.5 1.5v3c0 .8.7 1.5 1.5 1.5zm-7 8h-11c-.8 0-1.5.7-1.5 1.5v13c0 .8.7 1.5 1.5 1.5h11c.8 0 1.5-.7 1.5-1.5v-13c0-.8-.7-1.5-1.5-1.5zm34 0h-27c-.8 0-1.5.7-1.5 1.5v3c0 .8.7 1.5 1.5 1.5h27c.8 0 1.5-.7 1.5-1.5v-3c0-.8-.7-1.5-1.5-1.5zm-10 10h-17c-.8 0-1.5.7-1.5 1.5v3c0 .8.7 1.5 1.5 1.5h17c.8 0 1.5-.7 1.5-1.5v-3c0-.8-.7-1.5-1.5-1.5z M0.39799999999999947 0.39799999999999947"/></svg>