<svg xmlns="http://www.w3.org/2000/svg" width="52" height="100" viewBox="0 -24 100 100" weight="100"><path d="M27.5 16c.6-.6.6-1.5 0-2.1L16.1 2.4c-.6-.6-1.5-.6-2.1 0L2.5 13.9c-.6.6-.6 1.5 0 2.1l2.1 2.1c.6.6 1.5.6 2.1 0l3.6-3.6c.6-.6 1.7-.2 1.7.7v21.2c0 .8.7 1.5 1.5 1.5h3c.8 0 1.5-.8 1.5-1.5V15.2c0-.9 1.1-1.3 1.7-.7l3.6 3.6c.6.6 1.5.6 2.1 0l2.1-2.1zm22 20l-2.1-2c-.6-.6-1.5-.6-2.1 0l-3.6 3.6c-.6.6-1.7.2-1.7-.7V15.5c0-.8-.7-1.5-1.5-1.5h-3c-.8 0-1.5.8-1.5 1.5v21.2c0 .9-1.1 1.3-1.7.7l-3.6-3.6c-.6-.6-1.5-.6-2.1 0L24.5 36c-.6.6-.6 1.5 0 2.1L36 49.6c.6.6 1.5.6 2.1 0l11.5-11.5c.5-.6.5-1.6-.1-2.1z M0.39599999999999946 0.39599999999999946" fill="#fff"/></svg>