<svg xmlns="http://www.w3.org/2000/svg" width="52" height="100" viewBox="0 -24 100 100" weight="100"><path d="M16 27.5v-3c0-.8-.7-1.5-1.5-1.5h-11c-.8 0-1.5.7-1.5 1.5v3c0 .8.7 1.5 1.5 1.5h11c.8 0 1.5-.7 1.5-1.5zm1.9 4.5c-.6-.6-1.5-.6-2.1 0L8 39.8c-.6.6-.6 1.5 0 2.1l2.1 2.1c.6.6 1.5.6 2.1 0l7.8-7.8c.6-.6.6-1.5 0-2.1L17.9 32zm16.2-12c.6.6 1.5.6 2.1 0l7.8-7.8c.6-.6.6-1.5 0-2.1L41.9 8c-.6-.6-1.5-.6-2.1 0L32 15.7c-.6.6-.6 1.5 0 2.1l2.1 2.2zM12.2 8c-.6-.6-1.5-.6-2.1 0L8 10.1c-.6.6-.6 1.5 0 2.1l7.8 7.8c.6.6 1.5.6 2.1 0l2.1-2.1c.6-.6.6-1.5 0-2.1L12.2 8zm24.1 24c-.6-.6-1.5-.6-2.1 0L32 34.1c-.6.6-.6 1.5 0 2.1l7.8 7.8c.6.6 1.5.6 2.1 0l2.1-2.1c.6-.6.6-1.5 0-2.1L36.3 32zm-8.8 4h-3c-.8 0-1.5.7-1.5 1.5v11c0 .8.7 1.5 1.5 1.5h3c.8 0 1.5-.7 1.5-1.5v-11c0-.8-.7-1.5-1.5-1.5zm21-13h-11c-.8 0-1.5.7-1.5 1.5v3c0 .8.7 1.5 1.5 1.5h11c.8 0 1.5-.7 1.5-1.5v-3c0-.8-.7-1.5-1.5-1.5zm-21-21h-3c-.8 0-1.5.7-1.5 1.5v11c0 .8.7 1.5 1.5 1.5h3c.8 0 1.5-.7 1.5-1.5v-11c0-.8-.7-1.5-1.5-1.5z M0.39499999999999946 0.39499999999999946" fill="#fff"/></svg>