<svg xmlns="http://www.w3.org/2000/svg" width="52" height="100" viewBox="0 -24 100 100" weight="100"><path fill="#fff" d="M48.5 2h-45C2.7 2 2 2.7 2 3.5v5c0 .8.7 1.5 1.5 1.5h45c.8 0 1.5-.7 1.5-1.5v-5c0-.8-.7-1.5-1.5-1.5zm-28 12h-7c-.8 0-1.5.7-1.5 1.5v3c0 .8.7 1.5 1.5 1.5h7c.8 0 1.5-.7 1.5-1.5v-3c0-.8-.7-1.5-1.5-1.5zm14 0h-7c-.8 0-1.5.7-1.5 1.5v3c0 .8.7 1.5 1.5 1.5h7c.8 0 1.5-.7 1.5-1.5v-3c0-.8-.7-1.5-1.5-1.5zm14 0h-7c-.8 0-1.5.7-1.5 1.5v3c0 .8.7 1.5 1.5 1.5h7c.8 0 1.5-.7 1.5-1.5v-3c0-.8-.7-1.5-1.5-1.5zm-28 20h-7c-.8 0-1.5.7-1.5 1.5v3c0 .8.7 1.5 1.5 1.5h7c.8 0 1.5-.7 1.5-1.5v-3c0-.8-.7-1.5-1.5-1.5zm14 0h-7c-.8 0-1.5.7-1.5 1.5v3c0 .8.7 1.5 1.5 1.5h7c.8 0 1.5-.7 1.5-1.5v-3c0-.8-.7-1.5-1.5-1.5zm14 0h-7c-.8 0-1.5.7-1.5 1.5v3c0 .8.7 1.5 1.5 1.5h7c.8 0 1.5-.7 1.5-1.5v-3c0-.8-.7-1.5-1.5-1.5zm0 10h-39c-.8 0-1.5-.7-1.5-1.5v-7c0-.8-.7-1.5-1.5-1.5h-3c-.8 0-1.5.7-1.5 1.5v13c0 .8.7 1.5 1.5 1.5h45c.8 0 1.5-.7 1.5-1.5v-3c0-.8-.7-1.5-1.5-1.5zm0-20h-39c-.8 0-1.5-.7-1.5-1.5v-7c0-.8-.7-1.5-1.5-1.5h-3c-.8 0-1.5.7-1.5 1.5v13c0 .8.7 1.5 1.5 1.5h45c.8 0 1.5-.7 1.5-1.5v-3c0-.8-.7-1.5-1.5-1.5z M0.38499999999999945 0.38499999999999945"/></svg>