<svg xmlns="http://www.w3.org/2000/svg" width="52" height="100" viewBox="0 -24 100 100" weight="100"><path fill="#fff" d="M46.5 2h-41C4.7 2 4 2.7 4 3.5v5c0 .8.7 1.5 1.5 1.5h41c.8 0 1.5-.7 1.5-1.5v-5c0-.8-.7-1.5-1.5-1.5zm-32 12h-9c-.8 0-1.5.7-1.5 1.5v3c0 .8.7 1.5 1.5 1.5h9c.8 0 1.5-.7 1.5-1.5v-3c0-.8-.7-1.5-1.5-1.5zm16 0h-9c-.8 0-1.5.7-1.5 1.5v3c0 .8.7 1.5 1.5 1.5h9c.8 0 1.5-.7 1.5-1.5v-3c0-.8-.7-1.5-1.5-1.5zm16 0h-9c-.8 0-1.5.7-1.5 1.5v3c0 .8.7 1.5 1.5 1.5h9c.8 0 1.5-.7 1.5-1.5v-3c0-.8-.7-1.5-1.5-1.5zm-32 10h-9c-.8 0-1.5.7-1.5 1.5v3c0 .8.7 1.5 1.5 1.5h9c.8 0 1.5-.7 1.5-1.5v-3c0-.8-.7-1.5-1.5-1.5zm16 0h-9c-.8 0-1.5.7-1.5 1.5v3c0 .8.7 1.5 1.5 1.5h9c.8 0 1.5-.7 1.5-1.5v-3c0-.8-.7-1.5-1.5-1.5zm16 0h-9c-.8 0-1.5.7-1.5 1.5v3c0 .8.7 1.5 1.5 1.5h9c.8 0 1.5-.7 1.5-1.5v-3c0-.8-.7-1.5-1.5-1.5zm-32 10h-9c-.8 0-1.5.7-1.5 1.5v3c0 .8.7 1.5 1.5 1.5h9c.8 0 1.5-.7 1.5-1.5v-3c0-.8-.7-1.5-1.5-1.5zm16 0h-9c-.8 0-1.5.7-1.5 1.5v3c0 .8.7 1.5 1.5 1.5h9c.8 0 1.5-.7 1.5-1.5v-3c0-.8-.7-1.5-1.5-1.5zm16 0h-9c-.8 0-1.5.7-1.5 1.5v3c0 .8.7 1.5 1.5 1.5h9c.8 0 1.5-.7 1.5-1.5v-3c0-.8-.7-1.5-1.5-1.5zm-32 10h-9c-.8 0-1.5.7-1.5 1.5v3c0 .8.7 1.5 1.5 1.5h9c.8 0 1.5-.7 1.5-1.5v-3c0-.8-.7-1.5-1.5-1.5zm16 0h-9c-.8 0-1.5.7-1.5 1.5v3c0 .8.7 1.5 1.5 1.5h9c.8 0 1.5-.7 1.5-1.5v-3c0-.8-.7-1.5-1.5-1.5zm16 0h-9c-.8 0-1.5.7-1.5 1.5v3c0 .8.7 1.5 1.5 1.5h9c.8 0 1.5-.7 1.5-1.5v-3c0-.8-.7-1.5-1.5-1.5z M0.38199999999999945 0.38199999999999945"/></svg>