<svg xmlns="http://www.w3.org/2000/svg" width="52" height="100" viewBox="0 -24 100 100" weight="100"><path d="M30.4 3.1c-1.5-1.5-3.8-1.5-5.3 0l-22 22c-1.5 1.5-1.5 3.8 0 5.2l11.7 11.8c1.5 1.4 3.8 1.4 5.2 0L42.1 20c1.4-1.4 1.4-3.7 0-5.2L30.4 3.1zM12.2 5c-.5-.5-1.5-.5-2 0L5 10.2c-.5.5-.5 1.5 0 2l2 1.9c.5.6 1.4.6 1.9 0l5.2-5.2c.6-.5.6-1.4 0-1.9l-1.9-2zm18.9 31.3c-.6.5-.6 1.4 0 1.9l11.3 11.4c.5.5 1.5.5 2 0l5.2-5.2c.5-.5.5-1.5 0-2L38.2 31c-.5-.5-1.4-.5-1.9 0l-5.2 5.3z M0.37299999999999944 0.37299999999999944" fill="#fff"/></svg>