<svg xmlns="http://www.w3.org/2000/svg" width="52" height="100" viewBox="0 -24 100 100" weight="100"><path fill="#fff" d="M14.5 4h-9C4.7 4 4 4.7 4 5.5v17c0 .8.7 1.5 1.5 1.5h9c.8 0 1.5-.7 1.5-1.5v-17c0-.8-.7-1.5-1.5-1.5zm16 0h-9c-.8 0-1.5.7-1.5 1.5v17c0 .8.7 1.5 1.5 1.5h9c.8 0 1.5-.7 1.5-1.5v-17c0-.8-.7-1.5-1.5-1.5zm16 0h-9c-.8 0-1.5.7-1.5 1.5v17c0 .8.7 1.5 1.5 1.5h9c.8 0 1.5-.7 1.5-1.5v-17c0-.8-.7-1.5-1.5-1.5zm-32 24h-9c-.8 0-1.5.7-1.5 1.5v17c0 .8.7 1.5 1.5 1.5h9c.8 0 1.5-.7 1.5-1.5v-17c0-.8-.7-1.5-1.5-1.5zm16 0h-9c-.8 0-1.5.7-1.5 1.5v17c0 .8.7 1.5 1.5 1.5h9c.8 0 1.5-.7 1.5-1.5v-17c0-.8-.7-1.5-1.5-1.5zm16 0h-9c-.8 0-1.5.7-1.5 1.5v17c0 .8.7 1.5 1.5 1.5h9c.8 0 1.5-.7 1.5-1.5v-17c0-.8-.7-1.5-1.5-1.5z M0.37199999999999944 0.37199999999999944"/></svg>