<svg xmlns="http://www.w3.org/2000/svg" width="52" height="100" viewBox="0 -24 100 100" weight="100"><path d="M17.4 35.3c-.1-.3-.4-.6-.7-.7l-2.2-.6c-.4-.1-.9.1-1.1.5L9.6 41c-1 1.8-.4 2.4 1.4 1.4l6.6-3.8c.4-.2.6-.7.5-1.1l-.7-2.2zm17.2-18.6c.1.3.4.6.7.7l2.2.6c.4.1.9-.1 1.1-.5l3.8-6.6c1-1.8.4-2.4-1.4-1.4l-6.6 3.8c-.4.2-.6.7-.5 1.1l.7 2.3zm-21.2.9c.2.4.7.6 1.1.5l2.2-.6c.3-.1.6-.4.7-.7l.6-2.2c.1-.4-.1-.9-.5-1.1L11 9.6c-1.8-1-2.4-.4-1.4 1.4l3.8 6.6zm25.2 16.8c-.2-.4-.7-.6-1.1-.5l-2.2.6c-.3.1-.6.4-.7.7l-.6 2.3c-.1.4.1.9.5 1.1l6.6 3.8c1.8 1 2.4.4 1.4-1.4l-3.9-6.6zm10.1-9.2l-16.4-4.4c-.6-.1-1-.6-1.1-1.1L26.8 3.3c-.5-1.7-1.2-1.7-1.7 0l-4.4 16.4c-.1.6-.6 1-1.1 1.1L3.3 25.2c-1.7.5-1.7 1.2 0 1.7l16.4 4.4c.6.1 1 .6 1.1 1.1l4.4 16.4c.5 1.7 1.2 1.7 1.7 0l4.4-16.4c.1-.6.6-1 1.1-1.1l16.4-4.4c1.6-.5 1.6-1.3-.1-1.7zM26 30c-2.2 0-4-1.8-4-4s1.8-4 4-4 4 1.8 4 4-1.8 4-4 4z M0.37099999999999944 0.37099999999999944" fill="#fff"/></svg>