<svg xmlns="http://www.w3.org/2000/svg" width="52" height="100" viewBox="0 -24 100 100" weight="100"><path fill="#fff" d="M37.8 29.8L29.6 27c-.6-.2-1.1-.8-1.1-1.5V14.6c0-1.7-1.4-3-3.1-3h-.3c-1.7 0-3.1 1.4-3.1 3v21.5c0 1.8-2.3 2.6-3.3 1l-2.1-4.4c-1.1-1.9-3.6-2.4-5.4-1.1l-1.3 1 6.9 16.3c.3.7 1 1.1 1.8 1.1h18.1c.9 0 1.6-.6 1.8-1.4l3.2-11.4c.8-3.2-1-6.3-3.9-7.4zM17.2 23v-8.6c.2-4.1 3.5-7.4 7.6-7.6h.8c4.1.2 7.4 3.5 7.6 7.6V23c0 .7.9 1 1.4.6 2.2-2.3 3.5-5.4 3.5-8.7 0-7.4-6.4-13.4-14-12.7-5.8.6-10.6 5-11.5 10.7-.6 4 .6 7.9 3.3 10.7.4.4 1.3.1 1.3-.6z M0.36999999999999944 0.36999999999999944"/></svg>