<svg xmlns="http://www.w3.org/2000/svg" width="52" height="100" viewBox="0 -24 100 100" weight="100"><path fill="#fff" d="M23.4 26.6c.6.6 1.4.6 2 0L46.8 6.9c.4-.7.3-1.9-1.2-1.9H3.4c-1.1 0-2 1.1-1.2 2l21.2 19.6zm6.7 11c.5-5.6 5-10.2 10.7-10.8.5 0 1-.1 1.4-.1 1.8 0 3.4.4 4.9 1V15.3c0-1-1.2-1.5-1.9-.8L28.6 29.9c-1.1 1-2.6 1.6-4.1 1.6s-3-.6-4.1-1.6L3.8 14.5c-.8-.7-1.9-.2-1.9.8v19.6c0 2.5 2.1 4.6 4.6 4.6h23.7c-.1-.6-.1-1.3-.1-1.9zm12-6.6c-4.4 0-8 3.6-8 8s3.6 8 8 8 8-3.6 8-8-3.6-8-8-8zm6 9.6c0 .2-.2.4-.5.4h-11c-.3 0-.5-.2-.5-.4v-3.2c0-.2.2-.4.5-.4h11c.3 0 .5.2.5.4v3.2z M0.36699999999999944 0.36699999999999944"/></svg>