<svg xmlns="http://www.w3.org/2000/svg" width="52" height="100" viewBox="0 -24 100 100" weight="100"><path fill="#fff" d="M22 36c0-2.7.9-5.8 2.3-8.2 1.7-3 3.6-4.2 5.1-6.4 2.5-3.7 3-9 1.4-13C29.2 4.3 25.4 1.9 21 2s-8 2.8-9.4 6.9c-1.6 4.5-.9 9.9 2.7 13.3 1.5 1.4 2.9 3.6 2.1 5.7-.7 2-3.1 2.9-4.8 3.7-3.9 1.7-8.6 4.1-9.4 8.7C1.4 44.1 4 48 8.1 48h17c.8 0 1.3-1 .8-1.6C23.4 43.5 22 39.8 22 36zm16-12c-6.6 0-12 5.4-12 12s5.4 12 12 12 12-5.4 12-12-5.4-12-12-12zm2.1 13.1c-.3 0-.7-.1-1-.2l-4.6 4.6c-.3.3-.7.4-1 .4-.4 0-.7-.1-1-.4-.5-.5-.5-1.4 0-2l4.6-4.6c-.1-.3-.2-.6-.2-1-.2-2.1 1.5-4 3.6-4 .3 0 .7.1 1 .2.2 0 .2.2.1.3l-2 2.1c-.2.1-.2.4 0 .5l1.4 1.4c.2.2.4.2.6 0l2-2c.1-.1.3-.1.3.1.1.3.2.7.2 1 0 2.1-1.8 3.8-4 3.6z M0.35599999999999943 0.35599999999999943"/></svg>