<svg xmlns="http://www.w3.org/2000/svg" width="52" height="100" viewBox="0 -24 100 100" weight="100"><path d="M24.6 2.6L12 18H6c-2.2 0-4 1.8-4 4v8c0 2.2 1.8 4 4 4h6l12.6 15.4c1.3 1.3 3.4.4 3.4-1.4V4c0-1.8-2.2-2.7-3.4-1.4zM44.8 26l4.9-4.9c.4-.4.4-1 0-1.4l-1.4-1.4c-.4-.4-1-.4-1.4 0L42 23.2l-4.9-4.9c-.4-.4-1-.4-1.4 0l-1.4 1.4c-.4.4-.4 1 0 1.4l4.9 4.9-4.9 4.9c-.4.4-.4 1 0 1.4l1.4 1.4c.4.4 1 .4 1.4 0l4.9-4.9 4.9 4.9c.4.4 1 .4 1.4 0l1.4-1.4c.4-.4.4-1 0-1.4L44.8 26z M0.3519999999999994 0.3519999999999994" fill="#fff"/></svg>