<svg xmlns="http://www.w3.org/2000/svg" width="100" height="100" viewBox="0 0 100 100"><path d="M79.4 28.7l-5.2-3.9c-.7-.5-1.5-.8-2.4-.8H54v-2c0-1.1-.9-2-2-2h-4c-1.1 0-2 .9-2 2v2H26c-1.1 0-2 .9-2 2v8c0 1.1.9 2 2 2h45.7c.9 0 1.7-.3 2.4-.8l5.2-3.9c.9-.7.9-1.9.1-2.6zM74 46H54v-3c0-.6-.4-1-1-1h-6c-.6 0-1 .4-1 1v3H28.3c-.9 0-1.7.3-2.4.8l-5.2 3.9c-.9.6-.9 1.9 0 2.6l5.2 3.9c.7.5 1.5.8 2.4.8H74c1.1 0 2-.9 2-2v-8c0-1.1-.9-2-2-2zM54 71.6V65c0-.6-.4-1-1-1h-6c-.6 0-1 .4-1 1v6.6c-4 1.1-6.2 3.5-6.9 6.5-.2.9.5 1.9 1.5 1.9h18.9c1 0 1.7-.9 1.5-1.9-.8-3-3-5.4-7-6.5z M0.5579999999999996 0.5579999999999996" fill="#fff"/></svg>