<svg xmlns="http://www.w3.org/2000/svg" width="100" height="100" viewBox="0 0 100 100"><path d="M32 42h4c.6 0 1-.4 1-1v-1.5C37 31.9 42.7 26 50 26s13 5.9 13 13.5V41c0 .6.4 1 1 1h4c.6 0 1-.4 1-1v-1.5C69 28.6 60.7 20 50 20s-19 8.6-19 19.5V41c0 .6.4 1 1 1zm38 6H31c-3.3 0-6 2.7-6 6v20c0 3.3 2.7 6 6 6h39c3.3 0 6-2.7 6-6V54c0-3.3-2.7-6-6-6zM55.3 64.1c-.9 1.4-1.4 3-1 4.6l.7 3c.2 1.1-.6 2.3-1.8 2.3h-6.4c-1.2 0-2-1.2-1.8-2.3l.7-3.1c.4-1.6-.1-3.2-1-4.5-.9-1.3-1.3-2.9-1-4.5.5-2.4 2.5-4.3 5-4.8 4.1-.8 7.6 2.2 7.6 5.9 0 1.3-.4 2.4-1 3.4z M0.6429999999999997 0.6429999999999997" fill="#fff"/></svg>