<svg xmlns="http://www.w3.org/2000/svg" width="100" height="100" viewBox="0 0 100 100"><path d="M50 41c-5 0-9 4-9 9s4 9 9 9 9-4 9-9-4-9-9-9zm0 14c-2.8 0-5-2.2-5-5s2.2-5 5-5 5 2.2 5 5-2.2 5-5 5zm0-35c-16.6 0-30 13.4-30 30s13.4 30 30 30 30-13.4 30-30-13.4-30-30-30zm0 52.9c0 1.2-1 2.1-2.2 2-12.1-1-21.7-10.7-22.8-22.8 0-1.1.9-2.1 2.1-2.1h2c1 0 1.9.8 2 1.8.9 9 8.1 16.2 17.1 17.1 1 .1 1.8 1 1.8 2v2zm0-7.9c-8.3 0-15-6.7-15-15s6.7-15 15-15 15 6.7 15 15-6.7 15-15 15zm22.9-15h-2c-1 0-1.9-.8-2-1.8-.9-9-8.1-16.2-17.1-17.1-1-.1-1.8-1-1.8-2v-2c0-1.2 1-2.1 2.2-2 12.1 1 21.7 10.7 22.8 22.8 0 1.1-.9 2.1-2.1 2.1z M0.7749999999999998 0.7749999999999998" fill="#fff"/></svg>