<svg xmlns="http://www.w3.org/2000/svg" width="100" height="100" viewBox="0 0 100 100"><path d="M29 60c-5.5 0-10 4.5-10 10s4.5 10 10 10 10-4.5 10-10-4.5-10-10-10zm0 14c-2.2 0-4-1.8-4-4s1.8-4 4-4 4 1.8 4 4-1.8 4-4 4zm42-14c-5.5 0-10 4.5-10 10s4.5 10 10 10 10-4.5 10-10-4.5-10-10-10zm0 14c-2.2 0-4-1.8-4-4s1.8-4 4-4 4 1.8 4 4-1.8 4-4 4zm-.6-20c2.2-.1 4.3.3 6.3 1 1 .4 2.1-.1 2.6-1 5.1-9.7-3.1-14.2-8.3-16.8-1.4-.6-3 .3-3 1.8v5.8c0 1.2-.8 2.4-2 2.2-7.4-1.2-14-9-22-9s-9 8-9 8c-5.6 0-11.1-.4-13.6-1-1.2-.3-2.4.7-2.4 2 0 0 0 7 10 7 8.2 0 15 6 15.9 14.2.2 2.2 0 4.4-.6 6.3-.2.7.3 1.4 1.1 1.4h9.2c.8 0 1.3-.7 1.1-1.4-.6-1.9-.8-3.9-.6-6 .7-7.8 7.3-14.2 15.3-14.5zM19 47zm26.3-15.5c.1.8.7 1.5 1.4 1.7l10.6 3.6c1 .3 2-.1 2.5-1l.9-1.7c.4-.7-.1-1.5-.8-1.6-3.1-.3-9.6-1.5-7.7-5 1.7-3 5.2-2.2 7.5-1.2.9.4 1.8-.6 1.4-1.5-1.5-3.2-5-5.2-8.7-4.8-4.7.5-8 5.1-7.4 9.8l.3 1.7z M0.6389999999999997 0.6389999999999997" fill="#fff"/></svg>