<svg xmlns="http://www.w3.org/2000/svg" width="100" height="100" viewBox="0 0 100 100"><path d="M78 24H28v-2c0-1.1-.9-2-2-2h-4c-1.1 0-2 .9-2 2v56c0 1.1.9 2 2 2h4c1.1 0 2-.9 2-2V32h50c1.1 0 2-.9 2-2v-4c0-1.1-.9-2-2-2zm-4 14H40c-3.3 0-6 2.7-6 6v22c0 3.3 2.7 6 6 6h34c3.3 0 6-2.7 6-6V44c0-3.3-2.7-6-6-6zm-5.5 17H66v10c0 .6-.4 1-1 1h-4c-.6 0-1-.4-1-1v-6c0-.6-.4-1-1-1h-4c-.6 0-1 .4-1 1v6c0 .6-.4 1-1 1h-4c-.6 0-1-.4-1-1V55h-2.5c-.5 0-.7-.6-.3-.9l11.2-10.9c.4-.3.9-.3 1.3 0l11.2 10.9c.3.3.1.9-.4.9z M0.5699999999999996 0.5699999999999996" fill="#fff"/></svg>