<svg width="100" height="100" viewBox="0 0 100 100" xmlns="http://www.w3.org/2000/svg"><g fill="#fff"><path d="M27.2 59h45.7c.3 0 .6-.3.6-.6V26.8c0-.7-.5-1-1.2-1H27.8c-.7 0-1.4.3-1.4 1v31.6c0 .3.4.6.8.6zm3.9-27.9c0-.3.2-.6.5-.6h36.7c.3 0 .6.3.6.6v22.7c0 .3-.3.6-.6.6H31.6c-.3 0-.6-.3-.6-.6V31.1h.1zM79.5 73.3l-5.9-11.8c-.1-.2-.3-.3-.5-.4H26.9c-.2.1-.4.2-.5.4l-5.9 11.8c-.2.4-.2.9 0 1.3.3.3.6.6 1.1.6h56.8c.4 0 .8-.3 1-.7.2-.3.2-.8 0-1.2h.1zM56 72.6H44.1c-.2 0-.3-.1-.3-.2-.1-.1-.1-.2 0-.3l1.7-3.3c.1-.2.3-.3.5-.3h8c.2 0 .4.1.5.2l1.7 3.4c.1.2 0 .5-.2.5z M0.9329999999999999 0.9329999999999999"/></g></svg>