<svg xmlns="http://www.w3.org/2000/svg" width="100" height="100" viewBox="0 0 100 100"><path d="M47.9 63.8L36.4 52.5c-2.4-2.3-6.2-2.3-8.6 0l-7.2 7.1c-.8.8-.8 2.1 0 2.8l1.4 1.4 1.4 1.4L35 76.6l.7.7 2.2 2.1c.8.8 2.1.8 2.9 0l7.2-7.1c2.3-2.3 2.3-6.1-.1-8.5zm-18.7-4.2l1.5-1.4c.8-.8 2-.8 2.8 0l8.7 8.5c.8.8.8 2.1 0 2.8l-1.5 1.4c-.8.8-2 .8-2.8 0l-8.7-8.5c-.8-.8-.8-2.1 0-2.8zm12.5-10.4l9.3 9.1c.2.2.4.3.7.3l4.3-.1c.5 0 .9-.4.9-.9l.1-3.7c0-.5.4-.9.9-.9l3.8-.1c.5 0 .9-.4.9-.9l.1-3.7c0-.5.4-.9.9-.9l3.8-.1c.5 0 .9-.4.9-.9l.1-3.7c0-.5.4-.9.9-.9l3.8-.1c.5 0 .9-.4.9-.9l.1-3.8c0-.5.4-.8.8-.9l4.1-.6c.7-.1 1.1-.9.7-1.5l-8.8-13c-.7-1-2.1-1.1-3-.3l-26.3 26c-.6.6-.6 1.8.1 2.5z M0.6499999999999997 0.6499999999999997" fill="#fff"/></svg>