<svg xmlns="http://www.w3.org/2000/svg" width="100" height="100" viewBox="0 0 100 100"><path d="M79.9 35.1c.2-3.2 0-6.4-.5-9.5-.4-2.6-2.4-4.6-5-5-3.2-.5-6.3-.7-9.5-.5-.9 0-1.3 1.1-.7 1.7l14 14c.6.6 1.7.1 1.7-.7zM56.3 22.3c-.5-.5-1.3-.7-1.9-.5-7.5 2.1-14.7 6.1-20.6 12.1-5.8 5.8-9.7 12.7-11.9 20-.2.7 0 1.5.5 2l21.8 21.8c.5.5 1.3.7 2 .5 7.3-2.2 14.2-6.1 20-11.9 5.9-5.9 10-13 12.1-20.6.2-.7 0-1.4-.5-1.9L56.3 22.3zm-8.4 39.3c-1.2 1.2-3.1 1.2-4.2 0L38.1 56c-1.2-1.2-1.2-3.1 0-4.2 1.2-1.2 3.1-1.2 4.2 0l5.6 5.6c1.2 1.1 1.2 3 0 4.2zm7-7c-1.2 1.2-3.1 1.2-4.2 0L45.1 49c-1.2-1.2-1.2-3.1 0-4.2 1.2-1.2 3.1-1.2 4.2 0l5.6 5.6c1.2 1.1 1.2 3 0 4.2zm7-7.1c-1.2 1.2-3.1 1.2-4.2 0l-5.6-5.6c-1.2-1.2-1.2-3.1 0-4.2 1.2-1.2 3.1-1.2 4.2 0l5.6 5.6c1.2 1.2 1.2 3.1 0 4.2zM20.1 64.3c-.2 3.4-.1 6.8.5 10.2.4 2.6 2.4 4.6 5 5 3.4.5 6.8.7 10.2.5.9-.1 1.3-1.1.7-1.7L21.8 63.6c-.6-.6-1.7-.2-1.7.7z M0.7539999999999998 0.7539999999999998" fill="#fff"/></svg>