<svg xmlns="http://www.w3.org/2000/svg" width="100" height="100" viewBox="0 0 100 100"><path d="M50 38c-6.6 0-12 5.4-12 12s5.4 12 12 12 12-5.4 12-12-5.4-12-12-12zm30 12c0-3.5-8.4-5.3-9.7-8.4-1.3-3.2 3.3-10.4.9-12.8-2.4-2.4-9.6 2.2-12.8.9-3.1-1.3-4.9-9.7-8.4-9.7s-5.3 8.4-8.4 9.7c-3.2 1.3-10.4-3.3-12.8-.9-2.4 2.4 2.2 9.6.9 12.8-1.3 3.1-9.7 4.9-9.7 8.4s8.4 5.3 9.7 8.4c1.3 3.2-3.3 10.4-.9 12.8 2.4 2.4 9.6-2.2 12.8-.9 3.1 1.3 4.9 9.7 8.4 9.7s5.3-8.4 8.4-9.7c3.2-1.3 10.4 3.3 12.8.9 2.4-2.4-2.2-9.6-.9-12.8 1.3-3.1 9.7-4.9 9.7-8.4zM50 68c-9.9 0-18-8.1-18-18s8.1-18 18-18 18 8.1 18 18-8.1 18-18 18z M0.8539999999999999 0.8539999999999999" fill="#fff"/></svg>