<svg xmlns="http://www.w3.org/2000/svg" width="100" height="100" viewBox="0 0 100 100"><path d="M57.9 43.4c-.4-.5-1.2-.4-1.5.2-1.2 1.7-2.4 4.3-2.4 7.4v11c0 1.6-1.3 3-3 3-1.6 0-3-1.3-3-3V27.8c0-7.7-6.7-8.9-11.6-7-1.3.4-2.5 1.2-3.4 2.2-.6.7-1.3 1.3-2.2 1.6-1.8.6-4.9-1.1-6.5-2.1-.9-.5-2.1-.3-2.7.5l-1.2 1.7c-.7.9-.4 2.3.5 2.9 1.9 1.2 4.9 3.1 7.2 3.5 3.5.6 6.7-.5 9.3-2.9l-.1.1c.7-.6 1.9-1.6 2.7-.5 2 3-6 16.1-6 35.2v1.6c0 8.1 8.2 15.1 16.3 15.5 8.6.4 15.7-6.5 15.7-15 0-4.3 1.6-7.1 3.2-8.8.4-.4.4-1 0-1.4L57.9 43.4zM77 53c-.8 0-1.5-.3-2.1-.9l-16-16c-1.2-1.2-1.2-3.1 0-4.2 1.2-1.2 3.1-1.2 4.2 0l16 16c1.2 1.2 1.2 3.1 0 4.2-.6.6-1.3.9-2.1.9z M0.5659999999999996 0.5659999999999996" fill="#fff"/></svg>