<svg xmlns="http://www.w3.org/2000/svg" width="100" height="100" viewBox="0 0 100 100"><path d="M53 52.6V77c0 .8.8 1.2 1.5.9 4.8-2.7 19.4-11 19.4-11 1.9-1.1 3.1-3.1 3.1-5.3V39.7c0-.8-.8-1.2-1.5-.9L54 50.9c-.6.4-1 1-1 1.7zm-2-6.8l21.6-12.1c.7-.4.7-1.3 0-1.7-4.8-2.7-19.5-11.1-19.5-11.1-1.9-1.1-4.3-1.1-6.2 0 0 0-14.7 8.3-19.5 11.1-.7.4-.7 1.3 0 1.7L49 45.8c.6.3 1.4.3 2 0zm-5 5.1L24.5 38.8c-.7-.4-1.5.1-1.5.9v21.8c0 2.2 1.2 4.2 3.1 5.3 0 0 14.6 8.3 19.4 11 .7.4 1.5-.1 1.5-.9V52.6c0-.7-.4-1.3-1-1.7z M0.7289999999999998 0.7289999999999998" fill="#fff"/></svg>