<svg width="100" height="100" viewBox="0 0 100 100" xmlns="http://www.w3.org/2000/svg"><path d="M76.1 26.3H23.9c-1.9 0-3.5 1.7-3.5 3.6v2.6c0 .3.1.5.3.7L47 54.7c1.6 1.6 4.3 1.6 5.9 0l26.3-21.5c.2-.2.3-.5.3-.7V30c0-2-1.5-3.6-3.4-3.7zM20.4 37.9c0-.3.2-.6.5-.8.3-.1.7-.1 1 .2l12.7 11.3c.2.1.3.4.3.6 0 .3-.1.5-.2.7l-12.8 12c-.2.3-.6.4-.9.2-.4-.1-.6-.4-.6-.8V37.9zm0 29.2c0-.2.1-.5.3-.6l16.1-15c.3-.3.8-.3 1.1 0l6.8 6c3 2.8 7.6 2.8 10.6 0l6.7-6c.4-.3.9-.3 1.2 0l16.1 14.9c.1.2.2.5.2.7V70c.1 1-.3 1.9-1 2.6-.6.7-1.6 1.1-2.5 1.1H23.9c-1.9 0-3.5-1.7-3.5-3.7v-2.9zm59.2-5.8c0 .3-.2.7-.6.8-.3.2-.7.1-.9-.2l-12.8-12c-.1-.2-.2-.5-.2-.7 0-.3.1-.5.3-.7l12.8-11.3c.2-.2.6-.3.9-.1.3.2.5.5.5.8v23.4z M0.969 0.969" fill="#fff"/></svg>