<svg xmlns="http://www.w3.org/2000/svg" width="100" height="100" viewBox="0 0 100 100"><path d="M73 20h-4c-1.1 0-2 .9-2 2v4c0 1.1-.9 2-2 2h-2c-1.1 0-2-.9-2-2v-4c0-1.1-.8-2-2-2h-4c-1.1 0-2 .9-2 2v4c0 1.1-.9 2-2 2h-2c-1.1 0-2-.9-2-2v-4c0-1.1-.9-2-2-2h-4c-1.1 0-2 .9-2 2v4c0 1.1-.9 2-2 2h-2c-1.1 0-2-.9-2-2v-4c0-1.1-.9-2-2-2h-4c-1.1 0-2 .9-2 2v10c0 3.3 2.7 6 6 6h38c3.3 0 6-2.7 6-6V22c0-1.1-.9-2-2-2zm-4.5 25.7c-.1-1-1-1.7-2-1.7h-33c-1 0-1.9.7-2 1.7l-4.5 32c-.2 1.2.8 2.3 2 2.3h12.9c1.1 0 2.1-.9 2.1-2v-9.7c0-3.3 2.5-6.2 5.8-6.2 3.4-.1 6.2 2.6 6.2 6v10c0 1.1 1 2 2.1 2H71c1.2 0 2.2-1.1 2-2.3l-4.5-32.1z M0.7239999999999998 0.7239999999999998" fill="#fff"/></svg>