<svg xmlns="http://www.w3.org/2000/svg" width="100" height="100" viewBox="0 0 100 100"><path d="M63.6 28.6c-.2-.8-1.1-1.3-1.9-1.1l-40.3 13c-1 .3-1.5 1.4-1.3 2.4l1.6 6.2c.3 1 1.3 1.7 2.3 1.5l10.2-1.4c.3 1.1.8 2.2 1.5 3.1L27 75.9c-.6 1.6.2 3.3 1.8 3.9.3.1.7.2 1 .2 1.2 0 2.4-.8 2.8-2l8.2-22.4c.7.2 1.3.2 2 .2s1.4-.1 2-.2L53.1 78c.4 1.2 1.6 2 2.8 2 .3 0 .7-.1 1-.2 1.6-.6 2.4-2.3 1.8-3.9L50 52.2c1.1-1.5 1.8-3.4 1.8-5.4v-.1l14.1-2c.9-.1 1.5-1 1.2-1.9l-3.5-14.2zm16.3 14.1l-5.5-20.4c-.4-1.6-2.1-2.6-3.7-2.2-1.6.4-2.6 2.1-2.2 3.7L74 44.2c.4 1.6 2.1 2.6 3.7 2.2 1.6-.4 2.6-2.1 2.2-3.7z M0.8139999999999998 0.8139999999999998" fill="#fff"/></svg>