<svg xmlns="http://www.w3.org/2000/svg" width="100" height="100" viewBox="0 0 100 100"><path d="M74.6 39.3c.4.4 1 .4 1.4 0l1.4-1.4c3.4-3.4 3.5-8.6.2-11.9 0 0-4.3-4.4-4.4-4.4-3.4-2.8-8.1-1.5-10.8 1.2L61 24.2c-.4.4-.4 1 0 1.4l13.6 13.7zm-18-9.5c-.4-.4-1-.4-1.4 0L27.7 57.1c-1.5 1.5-2.6 3.3-3.3 5.4L20.2 76c-.3.8-.2 1.8.2 2.5.6 1 1.6 1.5 2.6 1.5.3 0 .6 0 .9-.1 0 0 9.2-2.9 13.7-4.3 2-.6 3.8-1.7 5.3-3.2L70.3 45c.4-.4.4-1 0-1.4L56.6 29.8zM35.8 69.9c-2.1.7-5.4 1.7-8.2 2.6l2.6-8.2c.3-1.1.9-2 1.7-2.8l6.7 6.7c-.8.8-1.8 1.4-2.8 1.7z M0.5719999999999996 0.5719999999999996" fill="#fff"/></svg>