<svg width="100" height="100" viewBox="0 0 100 100" xmlns="http://www.w3.org/2000/svg"><path d="M61.7 20.2H38.3c-1.6 0-3.2.6-4.3 1.7-1.2 1.1-1.8 2.7-1.9 4.3v47.5c.1 3.4 2.8 6.1 6.2 6.1h23.4c3.4 0 6.1-2.7 6.2-6.1V26.2c-.1-1.6-.7-3.2-1.9-4.3-1.1-1.1-2.7-1.7-4.3-1.7zm-16.1 3.5h8.8c.2 0 .5.2.5.5s-.3.5-.5.5h-8.8c-.3 0-.5-.2-.5-.5s.2-.5.5-.5zm7.8 51.8c-.1.4-.4.6-.7.5h-5.6c-.3 0-.5-.2-.5-.5V73c0-.2.3-.6.5-.6h5.6c.4 0 .7.2.7.6v2.5zm10.9-7.3c0 .1 0 .3-.2.4-.1.2-.3.2-.5.2H36.4c-.2 0-.4 0-.5-.2-.2-.1-.3-.3-.3-.4V28.7c0-.2.1-.4.2-.6.2-.1.4-.2.6-.2h27.2c.4 0 .7.4.7.8v39.5z M0.944 0.944" fill="#fff"/></svg>