<svg width="100" height="100" viewBox="0 0 100 100" xmlns="http://www.w3.org/2000/svg"><path d="M31.2 60.7h-8.8c-.3 0-.6.1-.8.3-.2.2-.3.5-.3.8v17.8c0 .3.1.6.3.8.2.2.5.3.8.3h8.8c.3 0 .6-.1.8-.3.2-.2.4-.5.4-.8V61.8c0-.3-.2-.6-.4-.8-.2-.2-.5-.3-.8-.3zm16.1-5.5h-8.7c-.7 0-1.2.5-1.2 1.2v23.2c0 .3.2.6.4.8.2.3.5.4.8.4h8.7c.3 0 .6-.1.8-.4.3-.2.4-.5.4-.8V56.4c0-.3-.1-.6-.4-.8-.2-.3-.5-.4-.8-.4zm16.1-20h-8.7c-.3 0-.6.1-.8.3-.3.2-.4.5-.4.8v43.3c0 .3.1.6.4.8.2.3.5.4.8.4h8.7c.3 0 .6-.1.9-.4.2-.2.3-.5.3-.8V36.3c0-.3-.1-.6-.3-.8-.3-.2-.6-.4-.9-.3zm16.2-14h-8.8c-.3 0-.6.1-.8.4-.2.2-.4.5-.4.8v57.2c0 .3.2.6.4.8.2.3.5.4.8.4h8.8c.3 0 .6-.1.8-.4.2-.2.3-.5.4-.8V22.4c-.1-.3-.2-.6-.4-.8-.2-.3-.5-.4-.8-.4z M0.982 0.982" fill="#fff"/></svg>