<svg xmlns="http://www.w3.org/2000/svg" width="100" height="100" viewBox="0 0 100 100"><path d="M80 45.3C77.6 31 65.1 20 50 20S22.4 31 20 45.3c-.2.9.9 1.6 1.6 1 1.5-1.3 3.4-2 5.6-2 2.8 0 5.2 1.3 6.8 3.3.4.5 1.2.5 1.6 0 1.6-2 4-3.3 6.8-3.3s5.2 1.3 6.8 3.3c.4.5 1.2.5 1.6 0 1.6-2 4-3.3 6.8-3.3s5.2 1.3 6.8 3.3c.4.5 1.2.5 1.6 0 1.6-2 4-3.3 6.8-3.3 2.1 0 4.1.8 5.6 2 .7.6 1.7 0 1.6-1zM62 68c-1.7 0-3 1.3-3 3s-1.3 3-3 3-3-1.3-3-3V57c0-1.7-1.3-3-3-3s-3 1.3-3 3v14c0 5 4 9 9 9s9-4 9-9c0-1.7-1.3-3-3-3z M0.7249999999999998 0.7249999999999998" fill="#fff"/></svg>