<svg xmlns="http://www.w3.org/2000/svg" width="100" height="100" viewBox="0 0 100 100"><path d="M54 53.1L52.8 51c-.5-.8-1.3-1.3-2.2-1.3-.3 0-.6.1-.9.2l-3.5 1.3c-1.4-1.2-2.9-2-4.6-2.6L41 45c-.2-1.2-1.3-1.9-2.5-1.9H36c-1.2 0-2.3.7-2.5 2l-.6 3.5c-1.7.6-3.2 1.5-4.6 2.7L24.8 50c-.3-.1-.6-.2-.9-.2-.9 0-1.8.5-2.2 1.3l-1.2 2.1c-.6 1.1-.4 2.4.6 3.2l2.9 2.4c-.2.9-.3 1.8-.3 2.6s.1 1.8.3 2.7l-2.9 2.4c-1 .8-1.2 2.2-.6 3.2l1.2 2.1c.5.8 1.3 1.3 2.2 1.3.3 0 .6-.1.9-.2l3.5-1.3c1.4 1.2 2.9 2.1 4.6 2.6l.6 3.7c.2 1.2 1.3 2.1 2.5 2.1h2.5c1.2 0 2.3-.9 2.5-2.1l.6-3.7c1.8-.6 3.4-1.6 4.8-2.8l3.3 1.3c.3.1.6.2.9.2.9 0 1.7-.5 2.2-1.2l1.2-2c.6-1.1.4-2.5-.6-3.3L50.5 64c.2-.9.3-1.8.3-2.6 0-.9-.1-1.8-.3-2.7l2.9-2.4c.9-.8 1.2-2.2.6-3.2zM37.2 68.3c-3.7 0-6.8-3-6.8-6.8s3-6.8 6.8-6.8c3.7 0 6.8 3 6.8 6.8s-3.1 6.8-6.8 6.8zm42-29.3l-2.3-1.9c.1-.7.2-1.4.2-2.1s-.1-1.5-.2-2.1l2.3-1.9c.8-.6 1-1.7.5-2.6l-1-1.7c-.4-.6-1.1-1-1.8-1-.2 0-.5.1-.7.1l-2.9 1.1c-1.1-1-2.4-1.7-3.7-2.1l-.5-3c-.2-1-1-1.6-2-1.6h-2c-1 0-1.9.6-2 1.6l-.5 2.9c-1.4.5-2.6 1.2-3.7 2.2L56 25.6c-.2-.1-.5-.1-.7-.1-.7 0-1.4.4-1.8 1l-1 1.7c-.5.9-.3 2 .5 2.6l2.3 1.9c-.1.7-.2 1.4-.2 2.1 0 .7.1 1.5.2 2.1L53 38.8c-.8.6-1 1.7-.5 2.6l1 1.7c.4.6 1.1 1 1.8 1 .2 0 .5 0 .7-.1l2.9-1.1c1.1 1 2.4 1.7 3.7 2.1l.5 2.9c.2 1 1 1.7 2 1.7h2c1 0 1.9-.7 2-1.7l.5-3c1.4-.5 2.8-1.3 3.9-2.3l2.7 1.1c.2.1.5.1.7.1.7 0 1.4-.4 1.8-1l1-1.6c.5-.4.3-1.5-.5-2.2zm-13.1 1.6c-3 0-5.5-2.5-5.5-5.5s2.5-5.5 5.5-5.5 5.5 2.5 5.5 5.5-2.4 5.5-5.5 5.5z M0.7179999999999997 0.7179999999999997" fill="#fff"/></svg>