<svg xmlns="http://www.w3.org/2000/svg" width="100" height="100" viewBox="0 0 100 100"><path d="M43 28.9c.3.7 1 1.1 1.8 1.1H55c.8 0 1.5-.4 1.8-1.1l4-7.4c.3-.7-.2-1.4-.9-1.4H40.1c-.7 0-1.2.8-.9 1.4l3.8 7.4zM55.9 36H44c-9.9 0-18 8.1-18 18v20c0 3.3 2.7 6 6 6h35.9c3.3 0 6.1-2.7 6.1-6V54c0-9.9-8.2-18-18.1-18zM53 69.6V73c0 .6-.6 1-1.2 1h-4c-.6 0-.8-.4-.8-1v-3.3c-3-.6-5.5-1.9-6.2-2.5-.8-.7-1-1.4-.4-2.3l1.3-2c.3-.5.9-.8 1.5-.8.4 0 .7.1 1 .3h.1c2 1.2 3.8 1.8 5.1 1.8 1.4 0 2.5-.7 2.5-1.5 0-.6-.4-1.6-4.2-2.9-3.4-1.2-7.6-3.3-7.6-7.9 0-2.7 1.8-5.9 6.8-6.9v-3c0-.6.3-1 .8-1h4c.6 0 1.2.4 1.2 1v3c2 .5 4.2 1.5 4.9 2 .4.2.6.7.7 1.2s-.1 1-.4 1.3l-1.5 1.8c-.4.5-1.1.9-1.7.9-.3 0-.6-.1-.9-.2-2-1.1-3.7-1.7-4.8-1.7-1.7 0-2.4.8-2.4 1.3 0 .7.4 1.5 3.8 2.7 4.2 1.4 8.9 3.6 8.9 8.3.1 3.2-2.5 6.1-6.5 7z M0.9089999999999999 0.9089999999999999" fill="#fff"/></svg>