<svg width="100" height="100" viewBox="0 0 100 100" xmlns="http://www.w3.org/2000/svg"><g fill="#fff"><path d="M47.9 60.4l.4-2.9 4-2.7-.9-3.7h-.5l-4.2-.3-1.6-2.3.9-4.8-3.1-2-.4.4-3.2 2.7-2.7-.4-2.6-4.1-3.6.9v.6l-.3 4.3-2.2 1.7-4.7-1-1.9 3.3.4.4 2.7 3.3-.4 2.8-4 2.7.9 3.7h.5l4.2.4 1.6 2.2-1 4.8 3.2 2 .4-.4 3.2-2.8 2.7.4 2.6 4.1 3.6-.9v-.6l.2-4.2 2.3-1.7 4.6 1 1.9-3.3-.4-.4-2.6-3.2zm-5.5.6c-1 1.7-2.6 3-4.5 3.4-1.9.5-3.9.2-5.6-.8-3.4-2.3-4.5-6.9-2.5-10.5 1-1.7 2.6-2.9 4.5-3.4s4-.2 5.6.8c3.5 2.3 4.6 6.9 2.5 10.5z M0.957 0.957"/><path d="M75.7 46.3l.4-2.8 3.9-2.7-.9-3.7h-.5l-4.1-.4-1.7-2.3.9-4.8-3.1-2-.4.4-3.2 2.8-2.7-.4-2.6-4.1-3.6.9v.6l-.3 4.2-2.2 1.7-4.6-1-2 3.3.4.4 2.7 3.3-.4 2.8-3.9 2.7.8 3.7h.6l4.1.4 1.6 2.3-.9 4.8 3.1 2 .4-.4 3.2-2.8 2.7.4 2.6 4.1 3.6-.9v-.5l.3-4.3 2.2-1.7 4.7.9 1.9-3.2-.4-.4-2.7-3.3zm-5.6.6c-.9 1.7-2.6 3-4.5 3.5-1.9.4-3.9.1-5.5-.9-3.5-2.3-4.6-6.9-2.5-10.4 1-1.8 2.6-3 4.5-3.5s3.9-.2 5.6.9c3.5 2.2 4.5 6.9 2.4 10.4z"/></g></svg>