<svg xmlns="http://www.w3.org/2000/svg" width="100" height="100" viewBox="0 0 100 100"><path d="M77 70H23c-1.6 0-3 1.3-3 3 0 1.6 1.3 3 3 3h54c1.6 0 3-1.3 3-3s-1.3-3-3-3zm-53-6h34v-4c0-1.1.9-2 2-2h10c1.1 0 2 .9 2 2v4h4c1.1 0 2-.9 2-2V28c0-1.1-.9-2-2-2H24c-1.1 0-2 .9-2 2v34c0 1.1.9 2 2 2zm9-26c0-1.1.9-2 2-2h29c1.1 0 2 .9 2 2v2c0 1.1-.9 2-2 2H35c-1.1 0-2-.9-2-2v-2zm0 12c0-1.1.9-2 2-2h19c1.1 0 2 .9 2 2v2c0 1.1-.9 2-2 2H35c-1.1 0-2-.9-2-2v-2z M0.7229999999999998 0.7229999999999998" fill="#fff"/></svg>