<svg xmlns="http://www.w3.org/2000/svg" width="100" height="100" viewBox="0 0 100 100"><path d="M72 70h-1V48c0-1.1-.9-2-2-2h-2c-1.1 0-2 .9-2 2v22h-6V48c0-1.1-.9-2-2-2h-2c-1.1 0-2 .9-2 2v22h-6V48c0-1.1-.9-2-2-2h-2c-1.1 0-2 .9-2 2v22h-6V48c0-1.1-.9-2-2-2h-2c-1.1 0-2 .9-2 2v22h-1c-3.3 0-6 2.7-6 6v2c0 1.1.9 2 2 2h52c1.1 0 2-.9 2-2v-2c0-3.3-2.7-6-6-6zm5-35.6L52.3 20.8c-.7-.5-1.5-.8-2.3-.8-.8 0-1.6.3-2.3.8L23 34.4c-.6.4-1 1-1 1.7V38c0 1.1.9 2 2 2h52c1.1 0 2-.9 2-2v-1.8c0-.7-.4-1.4-1-1.8zM50 36c-2.8 0-5-2.2-5-5s2.2-5 5-5 5 2.2 5 5-2.2 5-5 5z M0.9129999999999999 0.9129999999999999" fill="#fff"/></svg>