<svg width="100" height="100" viewBox="0 0 100 100" xmlns="http://www.w3.org/2000/svg"><path d="M44.9 38.7c4.1 0 7.4 3.3 7.4 7.4 0 4.2-3.3 7.5-7.5 7.5-4.1 0-7.4-3.4-7.4-7.5 0-2 .8-3.9 2.2-5.3 1.4-1.4 3.3-2.2 5.3-2.1zm.5 31.4c.5-.2 1.2-.6 1.9-1 1.9-1.1 3.9-2 5.9-2.8-.6-1.2-1.1-2.5-1.6-3.8 0-.1-.1-.2-.1-.3-2.1.9-4.3 1.4-6.6 1.4-9.5 0-17.2-7.6-17.5-17-.2-9.5 7.2-17.4 16.6-17.9 9.5-.4 17.6 6.7 18.2 16.2 4 .4 6.2 2.3 7.3 4.5.2-1.1.3-2.2.3-3.3 0-13.6-10.9-24.7-24.5-24.9C31.7 21 20.4 31.7 20 45.3c-.4 13.6 10.2 25 23.8 25.6.5-.2 1-.5 1.6-.8zm29.9 2.3c-2.4-1.1-5.8-3.7-10.9-4.6 1.3-1.4 2.3-3.6 3.3-6.2.6-1.5.5-2.8.5-4.6 0-1.3.2-3.5-.1-4.7-1.1-4-4-5.1-7.3-5.1s-6.2 1.1-7.3 5.1c-.3 1.2-.1 3.4-.1 4.7 0 1.9-.1 3.1.5 4.6 1 2.6 2 4.8 3.3 6.2-5.1.9-8.5 3.6-10.9 4.6-4.7 2.1-4.8 4.5-4.8 4.5v3.9H80v-3.9s0-2.4-4.8-4.5h.1z M0.986 0.986" fill="#fff"/></svg>