<svg xmlns="http://www.w3.org/2000/svg" width="100" height="100" viewBox="0 0 100 100"><path d="M27.2 49.1c6.5-1.2 12.2-3.8 18.4-6.7 2-.9 5.7-2.7 7.5-3.5.6-.3 1-.9.8-1.6C53.4 34.4 51 32 48 32h-2v-3.8c0-1.1-1-2.1-2-2.1V22c0-1.1-.9-2.1-2-2.1h-4c-1.1 0-2 .9-2 2.1v4.1c-1 0-2 .9-2 2.1V32h-2c-3.3 0-6 3.1-6 6.5v9.6c0 .6.6 1.1 1.2 1zM72 69.2s7.3-11.4 8-27.5c0-1.2-.9-2.2-2.1-2.2-23.8.9-34.9 15.5-56 16.4-1.1 0-1.9 1-1.9 2v7.6c0 3.3 2.5 5.9 5.6 6.1 10.5.7 33 2.2 45.9 4.3 1.3.2 2.5-1 2.3-2.3-.3-1.5-.8-3.3-1.8-4.4zM71 51c-1.7 0-3-1.3-3-3s1.3-3 3-3 3 1.3 3 3-1.3 3-3 3z M0.7319999999999998 0.7319999999999998" fill="#fff"/></svg>