<svg xmlns="http://www.w3.org/2000/svg" width="100" height="100" viewBox="0 0 100 100"><path d="M38 47.7c0-.8-1-1.3-1.6-.8l-14 10.8c-1.5 1.1-2.4 2.9-2.4 4.8v4.1c0 .7.7 1.2 1.3.9l15.4-5.8c.8-.3 1.3-1 1.3-1.9V47.7zm22.1 28L56 73V27.6c0-2.7-2.9-5.7-4.8-7.2-.7-.6-1.8-.6-2.5 0-1.8 1.5-4.8 4.5-4.8 7.2V73l-4.6 3c-.8.6-1.4 1.5-1.4 2.5v.6c0 .5.4.9.9.9h22.1c.5 0 1.1-.4 1.1-.9 0-1.4-.8-2.6-1.9-3.4zm17.5-18l-14-10.8a1 1 0 0 0-1.6.8v12.2c0 .8.5 1.6 1.3 1.9l15.4 5.8c.7.2 1.3-.2 1.3-.9v-4.1c0-2-.9-3.8-2.4-4.9z M0.8939999999999999 0.8939999999999999" fill="#fff"/></svg>