<svg xmlns="http://www.w3.org/2000/svg" width="100" height="100" viewBox="0 0 100 100"><path d="M62.7 30.3c-6.3 6.3-13.9-1.4-20.9 5.6L21.7 56c-2.3 2.3-2.3 6 0 8.3l7 7 7 7c2.3 2.3 6 2.3 8.3 0l20.2-20.2c7-7-.7-14.6 5.6-20.9l1.6-1.6c.4-.4.4-1 0-1.4l-5.5-5.5c-.4-.4-1-.4-1.4 0l-1.8 1.6zM57.9 56l-7 7c-.8.8-2 .8-2.8 0l-5.6-5.6-5.6-5.6c-.8-.8-.8-2 0-2.8l7-7c.8-.8 2-.8 2.8 0l5.6 5.6 5.6 5.6c.8.8.8 2 0 2.8zm21.5-31.3l-2.1-2.1-2.1-2.1c-.8-.8-2-.8-2.8 0l-2.6 2.6c-.4.4-.4 1 0 1.4l5.5 5.5c.4.4 1 .4 1.4 0l2.6-2.6c.9-.6.9-1.9.1-2.7z M0.7299999999999998 0.7299999999999998" fill="#fff"/></svg>