<svg xmlns="http://www.w3.org/2000/svg" width="100" height="100" viewBox="0 0 100 100"><path d="M76.6 56.3C74.3 57.4 71.7 58 69 58c-3.3 0-6.3-.9-9-2.4-.3-.2-.7-.2-1 0-2.6 1.6-5.7 2.4-9 2.4s-6.3-.9-9-2.4c-.3-.2-.7-.2-1 0-2.6 1.6-5.7 2.4-9 2.4-2.7 0-5.3-.6-7.6-1.7-.6-.3-1.4.2-1.4.9v12.1c0 2.4 1.4 4.5 3.6 5.5 5 2.2 10.4 3.8 16.1 4.6 1.2.2 2.3-.8 2.3-2v-7.5c0-3.3 2.7-5.9 5.9-5.9h.1c3.3 0 5.9 2.7 5.9 5.9v7.5c0 1.2 1.1 2.1 2.3 2 5.6-.8 11-2.4 16.1-4.6 2.2-1 3.6-3.1 3.6-5.5V57.2c.1-.7-.7-1.2-1.3-.9zM31 52c3.6 0 6.7-1.5 8.7-3.9.4-.5 1.1-.5 1.5 0 2 2.4 5.2 3.9 8.7 3.9 3.6 0 6.7-1.5 8.7-3.9.4-.5 1.1-.5 1.5 0 2 2.4 5.2 3.9 8.7 3.9 5.6 0 10.3-3.9 10.9-8.8.1-.7-.2-1.4-.8-1.8l-25.3-20c-2.2-1.7-5.3-1.7-7.4 0l-25.5 20c-.6.4-.8 1.1-.8 1.8.8 5 5.5 8.8 11.1 8.8z M0.7729999999999998 0.7729999999999998" fill="#fff"/></svg>