<svg xmlns="http://www.w3.org/2000/svg" width="100" height="100" viewBox="0 0 100 100"><path d="M80 44H59c-1.1 0-2 .9-2 2v1c0 1.6-1.3 3-3 3-1.6 0-3-1.3-3-3v-1c0-1.1-.9-2-2-2h-5 .1c-5.9.3-11 3.7-13.8 8.6-1-.4-2.1-.6-3.2-.6-5 0-9 4-9 9s4 9 9 9c1.1 0 2.2-.2 3.2-.6 2.8 4.9 8 8.3 13.8 8.6 9.8.5 17.9-7.3 17.9-17 0-.6 0-1.2-.1-1.8-.1-1 .6-2 1.6-2.2l16.9-3.7c.9-.2 1.6-1 1.6-2V46c0-1.1-.9-2-2-2zM27 64c-1.7 0-3-1.3-3-3s1.3-3 3-3c.4 0 .9.1 1.2.3-.2 1.2-.2 2.5-.2 3.8 0 .6.1 1.1.2 1.6-.4.2-.8.3-1.2.3zm27-27c1.7 0 3-1.3 3-3v-9c0-1.7-1.3-3-3-3s-3 1.3-3 3v9c0 1.7 1.3 3 3 3zm-14.3 1c.6.7 1.4 1 2.3 1 .7 0 1.4-.2 2-.7 1.3-1.1 1.4-3 .3-4.2l-6-7c-1.1-1.3-3-1.4-4.2-.3-1.3 1.1-1.4 3-.3 4.2l5.9 7zM66 39c.8 0 1.7-.4 2.3-1l6-7c1.1-1.3.9-3.2-.3-4.2-1.3-1.1-3.2-.9-4.2.3l-6 7c-1.1 1.3-.9 3.2.3 4.2.5.5 1.2.7 1.9.7z M0.6369999999999997 0.6369999999999997" fill="#fff"/></svg>